<svg width="61" height="116" viewBox="0 0 61 116" fill="none" xmlns="http://www.w3.org/2000/svg">
<g clip-path="url(#clip0_1_8996)">
<g opacity="0.7">
<path fill-rule="evenodd" clip-rule="evenodd" d="M53.2683 22.6581C57.0331 21.7026 60.8499 24.02 61.7388 27.8011L76.0941 88.8619C76.8447 92.0547 75.2598 95.3373 72.2929 96.7352L41.1856 111.392C40.0004 111.95 38.6814 112.162 37.381 112.003L22.2658 110.152C19.3543 109.796 16.9805 107.649 16.3344 104.787L2.28588 42.5739C1.45666 38.9018 3.70371 35.2374 7.35267 34.3113L12.4029 33.0296L24.01 30.0837L34.0049 27.5471L43.9999 25.0104L53.2683 22.6581Z" fill="#A64CED"/>
<path d="M24.01 30.0837C22.5325 24.2623 21.5121 12.1284 29.2501 10.1646C36.9882 8.20068 42.3075 19.2435 43.9999 25.0104M24.01 30.0837L34.0049 27.5471M24.01 30.0837L12.4029 33.0296M43.9999 25.0104L53.2683 22.6581C57.0331 21.7026 60.8499 24.02 61.7388 27.8011L76.0941 88.8619C76.8447 92.0546 75.2598 95.3373 72.2929 96.7352L41.1856 111.392C40.0004 111.95 38.6814 112.162 37.381 112.003L22.2658 110.152C19.3543 109.796 16.9805 107.649 16.3344 104.787L2.28588 42.5739C1.45666 38.9018 3.70371 35.2374 7.35267 34.3113L12.4029 33.0296M43.9999 25.0104L34.0049 27.5471M34.0049 27.5471C31.2476 18.5344 23.5623 1.0406 14.8802 3.16676C6.19811 5.29292 9.61114 23.9612 12.4029 33.0296" stroke="#A64CED" stroke-width="1.38922" stroke-linecap="round" stroke-linejoin="round"/>
<path d="M38.2236 104.237L34.3706 90.3926M22.8116 48.8588L30.5176 76.548" stroke="white" stroke-width="1.38922" stroke-linecap="round" stroke-linejoin="round"/>
</g>
</g>
<defs>
<clipPath id="clip0_1_8996">
<rect width="61" height="116" fill="white"/>
</clipPath>
</defs>
</svg>
