<svg width="64" height="64" viewBox="0 0 64 64" fill="none" xmlns="http://www.w3.org/2000/svg">
<g clip-path="url(#clip0_1_9053)">
<path d="M64 32C64 14.3269 49.6731 0 32 0C14.3269 0 0 14.3269 0 32C0 47.9719 11.7019 61.2106 27 63.6113V41.25H18.875V32H27V24.95C27 16.93 31.7775 12.5 39.0869 12.5C42.5869 12.5 46.25 13.125 46.25 13.125V21H42.215C38.24 21 37 23.4669 37 26V32H45.875L44.4562 41.25H37V63.6113C52.2981 61.2106 64 47.9719 64 32Z" fill="#954CED"/>
<path d="M44.4562 41.25L45.875 32H37V26C37 23.4694 38.24 21 42.215 21H46.25V13.125C46.25 13.125 42.5881 12.5 39.0869 12.5C31.7775 12.5 27 16.93 27 24.95V32H18.875V41.25H27V63.6113C30.3132 64.1296 33.6868 64.1296 37 63.6113V41.25H44.4562Z" fill="white"/>
</g>
<defs>
<clipPath id="clip0_1_9053">
<rect width="64" height="64" rx="32" fill="white"/>
</clipPath>
</defs>
</svg>
