<svg width="65" height="64" viewBox="0 0 65 64" fill="none" xmlns="http://www.w3.org/2000/svg">
<rect x="0.166626" width="64" height="64" rx="32" fill="#954CED"/>
<g clip-path="url(#clip0_1_9056)">
<path d="M32.2333 18.9207C36.5172 18.9207 37.0245 18.9395 38.7092 19.0146C40.275 19.0835 41.1205 19.3466 41.6842 19.5658C42.4295 19.8539 42.9681 20.2046 43.5255 20.762C44.0892 21.3257 44.4336 21.8581 44.7217 22.6034C44.941 23.167 45.204 24.0188 45.2729 25.5783C45.348 27.2693 45.3668 27.7766 45.3668 32.0543C45.3668 36.3382 45.348 36.8455 45.2729 38.5302C45.204 40.096 44.941 40.9415 44.7217 41.5052C44.4336 42.2505 44.0829 42.7891 43.5255 43.3465C42.9618 43.9102 42.4295 44.2546 41.6842 44.5427C41.1205 44.7619 40.2687 45.025 38.7092 45.0939C37.0182 45.169 36.5109 45.1878 32.2333 45.1878C27.9494 45.1878 27.4421 45.169 25.7573 45.0939C24.1916 45.025 23.3461 44.7619 22.7824 44.5427C22.0371 44.2546 21.4985 43.9039 20.9411 43.3465C20.3774 42.7828 20.0329 42.2505 19.7448 41.5052C19.5256 40.9415 19.2626 40.0897 19.1937 38.5302C19.1185 36.8392 19.0997 36.3319 19.0997 32.0543C19.0997 27.7703 19.1185 27.263 19.1937 25.5783C19.2626 24.0125 19.5256 23.167 19.7448 22.6034C20.0329 21.8581 20.3836 21.3194 20.9411 20.762C21.5047 20.1984 22.0371 19.8539 22.7824 19.5658C23.3461 19.3466 24.1978 19.0835 25.7573 19.0146C27.4421 18.9395 27.9494 18.9207 32.2333 18.9207ZM32.2333 16.0334C27.8805 16.0334 27.3356 16.0522 25.6258 16.1274C23.9223 16.2025 22.7511 16.4781 21.7365 16.8727C20.678 17.2861 19.7824 17.8309 18.8931 18.7265C17.9974 19.6159 17.4526 20.5115 17.0392 21.5637C16.6446 22.5846 16.3691 23.7495 16.2939 25.453C16.2187 27.1691 16.2 27.714 16.2 32.0668C16.2 36.4196 16.2187 36.9645 16.2939 38.6743C16.3691 40.3778 16.6446 41.549 17.0392 42.5636C17.4526 43.6221 17.9974 44.5177 18.8931 45.407C19.7824 46.2964 20.678 46.8475 21.7302 47.2546C22.7511 47.6492 23.916 47.9247 25.6195 47.9999C27.3293 48.0751 27.8742 48.0938 32.227 48.0938C36.5798 48.0938 37.1247 48.0751 38.8345 47.9999C40.538 47.9247 41.7092 47.6492 42.7238 47.2546C43.776 46.8475 44.6716 46.2964 45.561 45.407C46.4503 44.5177 47.0015 43.6221 47.4086 42.5699C47.8032 41.549 48.0787 40.3841 48.1539 38.6805C48.229 36.9707 48.2478 36.4258 48.2478 32.073C48.2478 27.7202 48.229 27.1754 48.1539 25.4656C48.0787 23.762 47.8032 22.5908 47.4086 21.5762C47.014 20.5115 46.4691 19.6159 45.5735 18.7265C44.6842 17.8372 43.7886 17.2861 42.7364 16.879C41.7155 16.4844 40.5506 16.2088 38.847 16.1337C37.131 16.0522 36.5861 16.0334 32.2333 16.0334Z" fill="white"/>
<path d="M32.2333 23.8309C27.6864 23.8309 23.9974 27.5199 23.9974 32.0668C23.9974 36.6138 27.6864 40.3027 32.2333 40.3027C36.7803 40.3027 40.4692 36.6138 40.4692 32.0668C40.4692 27.5199 36.7803 23.8309 32.2333 23.8309ZM32.2333 37.4092C29.2834 37.4092 26.891 35.0167 26.891 32.0668C26.891 29.1169 29.2834 26.7244 32.2333 26.7244C35.1832 26.7244 37.5757 29.1169 37.5757 32.0668C37.5757 35.0167 35.1832 37.4092 32.2333 37.4092Z" fill="white"/>
<path d="M42.7176 23.5051C42.7176 24.5699 41.8533 25.4279 40.7948 25.4279C39.7301 25.4279 38.8721 24.5636 38.8721 23.5051C38.8721 22.4404 39.7364 21.5824 40.7948 21.5824C41.8533 21.5824 42.7176 22.4467 42.7176 23.5051Z" fill="white"/>
</g>
<defs>
<clipPath id="clip0_1_9056">
<rect width="32.0667" height="32.0667" fill="white" transform="translate(16.2 16.0334)"/>
</clipPath>
</defs>
</svg>
