<svg width="65" height="65" viewBox="0 0 65 65" fill="none" xmlns="http://www.w3.org/2000/svg">
<rect x="0.25" y="0.166748" width="64" height="64" rx="32" fill="#954CED"/>
<g clip-path="url(#clip0_1_9058)">
<path d="M39.0941 16.2001H33.6899V38.0425C33.6899 40.6451 31.6115 42.7829 29.0248 42.7829C26.4382 42.7829 24.3597 40.6451 24.3597 38.0425C24.3597 35.4866 26.3921 33.3952 28.8863 33.3023V27.8184C23.3897 27.9114 18.9556 32.4193 18.9556 38.0425C18.9556 43.7124 23.4821 48.2667 29.0711 48.2667C34.6599 48.2667 39.1865 43.6659 39.1865 38.0425V26.8425C41.2188 28.3296 43.713 29.2126 46.3458 29.2591V23.7752C42.2812 23.6358 39.0941 20.2897 39.0941 16.2001Z" fill="white"/>
</g>
<defs>
<clipPath id="clip0_1_9058">
<rect width="32.0667" height="32.0667" fill="white" transform="translate(16.2833 16.2001)"/>
</clipPath>
</defs>
</svg>
