<svg width="196" height="29" viewBox="0 0 196 29" fill="none" xmlns="http://www.w3.org/2000/svg">
<g clip-path="url(#clip0_1_9109)">
<path d="M22.9964 28.4907L21.4099 26.78C22.1588 26.0934 22.9501 25.4126 23.6953 24.6704C26.1231 22.2559 28.5471 19.8394 30.9423 17.3827C32.3882 15.9041 32.5634 13.875 31.4621 12.3101C29.9507 10.1622 27.1416 9.94738 25.2182 11.8594C22.2249 14.8359 19.2407 17.8219 16.2654 20.8175L14.3227 22.7737L12.5668 20.8789C14.9889 18.5219 17.4687 16.1208 19.9351 13.7063C21.1692 12.4981 22.3648 11.2496 23.6048 10.0471C26.2155 7.51177 30.1509 7.48491 32.6751 9.96272C35.1992 12.4405 35.3205 16.4047 32.7636 18.9918C29.5849 22.1984 26.2964 25.2918 22.9964 28.4907Z" fill="#181818"/>
<path d="M12.869 2.322C9.74612 5.39049 6.5616 8.44364 3.43484 11.5716C1.3959 13.614 1.90612 16.7305 4.40906 18.0308C5.8935 18.7979 7.815 18.4469 9.16081 17.1045C12.6495 13.6217 16.1306 10.1326 19.6039 6.63707C19.7155 6.52392 19.833 6.41843 19.9889 6.27268L21.768 8.19049C19.0436 10.8313 16.2172 13.5604 13.3985 16.3105C12.4801 17.2023 11.6041 18.1382 10.6722 19.0165C8.00753 21.5231 4.10101 21.4962 1.59999 18.9743C0.407638 17.762 -0.257294 16.1307 -0.250807 14.4335C-0.244321 12.7364 0.433064 11.1102 1.63465 9.90694C4.76525 6.74831 7.96518 3.65872 11.2363 0.438721L12.869 2.322Z" fill="#181818"/>
<path d="M68.005 19.9103L70.0824 22.7161C68.4921 22.8369 67.2175 23.1361 66.5013 21.6785C66.2394 21.1454 65.864 21.3314 65.4539 21.4868C62.3156 22.6048 58.9077 21.5309 57.2192 18.9054C54.9396 15.367 56.0351 10.0662 59.4815 8.20018C61.9247 6.87881 64.4315 6.91909 66.7978 8.35169C69.2333 9.8284 70.0112 12.2122 69.9765 14.9163C69.9703 16.7682 69.2667 18.5503 68.005 19.9103ZM66.8774 17.3093C67.5477 15.68 67.5794 13.7846 66.9749 12.1298C66.3338 10.3846 64.9687 9.4851 63.1531 9.4103C61.4203 9.33934 60.009 10.0662 59.2273 11.6676C58.2069 13.7618 58.2493 15.8714 59.4642 17.8889C60.2959 19.2698 61.5936 19.8681 63.1935 19.8068C64.8436 19.7473 66.1143 18.9994 66.792 17.5054C66.8218 17.4407 66.8502 17.3753 66.8774 17.3093Z" fill="#181818"/>
<path d="M114.922 21.4121C114.181 21.4121 113.537 21.4658 112.91 21.3891C112.583 21.322 112.29 21.1429 112.082 20.8828C111.015 19.5672 109.927 18.2631 108.971 16.8707C108.372 16.0001 107.677 15.8697 106.702 16.1151V21.3393H104.348V7.47925C106.754 7.61541 109.186 7.57705 111.554 7.94718C113.212 8.20417 114.113 9.67323 114.192 11.3014C114.288 13.2595 113.551 14.5866 111.934 15.3595C111.622 15.5091 111.304 15.6434 110.902 15.8256C111.637 16.7461 112.386 17.6091 113.05 18.5354C113.693 19.433 114.706 20.108 114.922 21.4121ZM106.728 13.9902C107.96 13.9001 109.078 13.8847 110.174 13.7179C111.215 13.5587 111.805 12.7858 111.832 11.8001C111.859 10.8143 111.3 10.0031 110.237 9.8439C109.092 9.67321 107.915 9.71349 106.728 9.65212V13.9902Z" fill="#181818"/>
<path d="M101.306 21.4139C100.603 21.4432 99.8993 21.4343 99.1976 21.3871C98.9684 21.3622 98.6816 21.0687 98.5853 20.8328C98.2195 19.9487 97.8999 19.0455 97.6111 18.1345C97.4474 17.6244 97.1721 17.4498 96.6311 17.4633C95.0908 17.4978 93.5505 17.492 92.0102 17.4633C91.4885 17.4633 91.1881 17.5764 91.0283 18.1191C90.7857 18.9438 90.3872 19.7244 90.1715 20.5548C89.9963 21.2356 89.6806 21.5137 88.9778 21.4235C88.4886 21.3951 87.9981 21.3951 87.5088 21.4235C87.6262 20.8846 87.6647 20.4435 87.8149 20.0446C89.284 16.1342 90.7838 12.2334 92.2432 8.31914C92.4357 7.78407 92.6976 7.55202 93.2829 7.59804C93.9537 7.66706 94.6299 7.66706 95.3007 7.59804C96.117 7.49256 96.4039 7.8857 96.6484 8.57036C98.0847 12.4904 99.5653 16.395 101.021 20.3093C101.135 20.6723 101.23 21.041 101.306 21.4139ZM96.633 15.3556C96.0053 13.5394 95.4354 11.8575 94.8347 10.1775C94.7635 9.98571 94.519 9.85147 94.3572 9.69038C94.1955 9.85339 93.9722 9.98763 93.8836 10.1832C93.6938 10.6219 93.5267 11.07 93.383 11.5257C92.946 12.7723 92.5147 14.0189 92.0507 15.3613L96.633 15.3556Z" fill="#181818"/>
<path d="M168.982 21.4119C168.181 21.4119 167.511 21.4522 166.852 21.387C166.66 21.3678 166.411 21.082 166.325 20.8653C165.978 20.01 165.651 19.1393 165.383 18.2609C165.212 17.6971 164.965 17.4382 164.322 17.4593C162.782 17.5092 161.242 17.4977 159.702 17.4593C159.166 17.4459 158.904 17.5993 158.739 18.1248C158.398 19.2141 157.969 20.2785 157.584 21.3851H155.246C155.289 21.0083 155.362 20.6356 155.466 20.2708C156.948 16.3374 158.464 12.4078 159.921 8.47435C160.173 7.78778 160.499 7.51545 161.226 7.59217C162.143 7.67847 163.275 7.35819 163.922 7.78395C164.53 8.19052 164.644 9.34696 164.958 10.1812C166.204 13.4875 167.443 16.7964 168.676 20.1078C168.803 20.5361 168.906 20.9716 168.982 21.4119ZM159.769 15.3113H164.347C163.716 13.4933 163.133 11.7883 162.522 10.093C162.464 9.92998 162.224 9.72094 162.081 9.73053C161.985 9.75756 161.896 9.80616 161.821 9.87263C161.746 9.9391 161.688 10.0217 161.65 10.1141C161.02 11.8133 160.416 13.5144 159.769 15.3113Z" fill="#181818"/>
<path d="M42.4326 17.6397L44.6333 17.3884C45.3707 19.2832 46.859 20.0734 48.8941 19.498C49.9164 19.2084 50.4209 18.5065 50.4343 17.5438C50.4343 16.5369 49.8028 16.069 48.9461 15.7967C47.9718 15.486 46.9822 15.2213 46.0195 14.878C43.738 14.0687 42.6367 12.6342 42.8215 10.7777C43.0141 8.77364 44.3772 7.49638 46.7396 7.08788C49 6.70432 51.0947 7.47144 52.0574 9.12268C52.3347 9.59829 52.454 10.164 52.6793 10.7758L50.4498 10.9849C49.4235 9.30297 48.2953 8.79283 46.7338 9.28763C45.9984 9.5216 45.5228 9.99144 45.4362 10.7777C45.3829 11.1153 45.4513 11.4607 45.6292 11.7528C45.8072 12.0448 46.0833 12.2647 46.4085 12.3734C47.5348 12.826 48.6938 13.1942 49.8336 13.6123C52.2037 14.481 53.0047 15.4879 52.9565 17.5169C52.9084 19.4827 51.7705 20.8251 49.5391 21.4753C48.6641 21.7477 47.7398 21.8251 46.8315 21.7022C45.9232 21.5792 45.0531 21.2589 44.2829 20.7638C43.145 20.058 42.6252 18.9649 42.4326 17.6397Z" fill="#181818"/>
<path d="M140.492 10.7834L138.228 10.9752C137.25 9.3086 136.049 8.71218 134.52 9.33163C133.99 9.54642 133.488 10.1697 133.276 10.722C133.008 11.4163 133.469 12.0338 134.142 12.3387C134.868 12.6628 135.631 12.9141 136.38 13.1845C136.957 13.3916 137.535 13.5681 138.101 13.7886C139.541 14.3774 140.658 15.2365 140.752 16.9645C140.85 18.8152 140.111 20.1768 138.473 21.0533C135.939 22.3957 132.311 21.6996 130.923 19.5842C130.777 19.3746 130.655 19.1494 130.559 18.913C130.419 18.5294 130.323 18.1286 130.174 17.6511L132.437 17.3845C133.363 19.3579 135.032 20.1308 136.813 19.4692C137.72 19.1316 138.222 18.4968 138.218 17.513C138.218 16.5637 137.622 16.0823 136.794 15.8157C135.831 15.5031 134.834 15.2404 133.869 14.8914C131.518 14.0648 130.403 12.6188 130.596 10.747C130.825 8.70642 132.244 7.3467 134.639 7.08204C136.661 6.85958 138.586 7.13574 139.789 9.06697C140.111 9.55601 140.24 10.1486 140.492 10.7834Z" fill="#181818"/>
<path d="M73.9794 7.3103H76.3072C76.3072 8.21743 76.3072 9.07085 76.3072 9.92428C76.336 12.193 76.3072 14.4656 76.4265 16.7267C76.5382 18.7193 77.7146 19.7358 79.5879 19.6936C81.3208 19.6552 82.5125 18.4892 82.5626 16.5925C82.6358 13.9076 82.5953 11.2226 82.603 8.5377C82.603 8.15414 82.603 7.77057 82.603 7.32948H84.925C84.9712 7.39276 85.0367 7.44454 85.0367 7.4944C85.0232 10.6569 85.1522 13.8232 84.9481 16.978C84.7171 20.5374 82.4875 21.7994 79.1971 21.7284C75.7507 21.6555 73.9602 19.7761 73.9313 16.3585C73.9082 13.6103 73.9313 10.8602 73.9313 8.11196C73.9274 7.85497 73.9582 7.60756 73.9794 7.3103Z" fill="#181818"/>
<path d="M117.983 21.3601V7.63623H126.938V9.69022H120.409V13.2976H126.449V15.4072H120.39V19.2888H127.013V21.3639L117.983 21.3601Z" fill="#181818"/>
<path d="M196.004 21.3871H187.026V7.46191H195.971V9.51012H189.336V13.154H195.497V15.2635H189.352V19.2315H196.008L196.004 21.3871Z" fill="#181818"/>
<path d="M146.886 16.1073V21.3659H144.464V7.77631C146.84 7.77631 149.208 7.61139 151.542 7.82618C153.567 8.01796 154.707 9.68645 154.736 11.8536C154.763 13.896 153.581 15.4169 151.567 15.8292C150.815 15.9738 150.053 16.0629 149.287 16.0958C148.529 16.1418 147.764 16.1073 146.886 16.1073ZM146.965 9.73247V14.0706C148.163 14.0169 149.285 14.0284 150.39 13.8979C151.598 13.756 152.252 12.9621 152.252 11.8478C152.252 10.7336 151.53 9.85329 150.327 9.75356C149.22 9.66151 148.105 9.73247 146.965 9.73247Z" fill="#181818"/>
<path d="M183.478 11.1671C182.868 11.3388 182.249 11.4733 181.624 11.5698C181.48 11.5651 181.34 11.5282 181.214 11.4618C181.087 11.3953 180.977 11.3011 180.892 11.1863C180.008 9.8438 178.739 9.26847 177.199 9.38354C175.538 9.51587 174.311 10.3904 173.683 11.9668C172.936 13.8424 172.944 15.718 173.907 17.5189C175.255 20.0254 178.913 20.4359 180.645 18.2227C181.188 17.5266 181.639 17.2772 182.446 17.5707C182.811 17.6711 183.184 17.7436 183.56 17.7874C182.91 20.3457 179.764 22.089 176.616 21.6671C172.902 21.1704 170.528 18.2937 170.591 14.3602C170.655 10.4268 173.214 7.59806 177.116 7.29121C179.902 7.07833 182.838 8.53777 183.478 11.1671Z" fill="#181818"/>
<path d="M26.1847 3.43271L24.4769 5.01298C24.3209 4.87107 24.1091 4.69078 23.9108 4.49708C21.9374 2.56777 19.7213 2.57928 17.7497 4.54887C14.4548 7.85772 11.1696 11.1749 7.8939 14.5004C7.6439 14.8003 7.42037 15.1211 7.2258 15.4593L5.11755 13.4283C7.52808 11.127 9.89626 8.89462 12.2413 6.6316C13.5275 5.38695 14.7674 4.09435 16.0304 2.82668C19.1572 -0.314692 23.2986 -0.0979732 26.1847 3.43271Z" fill="#181818"/>
<path d="M8.1731 25.6292C8.7507 25.0539 9.28787 24.5265 9.85007 23.9703C10.2698 24.3539 10.6375 24.7643 11.0592 25.0961C12.6649 26.3657 14.8771 26.1835 16.4501 24.6089C19.8002 21.2605 23.1234 17.8851 26.4619 14.5174C26.7084 14.2681 26.9317 13.9958 27.2552 13.6353L29.0169 15.7448C26.8374 17.8333 24.527 20.0331 22.2166 22.2596C20.9535 23.4851 19.729 24.7528 18.4968 26.0051C15.2507 29.3153 11.2806 29.2059 8.1731 25.6292Z" fill="#181818"/>
</g>
<defs>
<clipPath id="clip0_1_9109">
<rect width="196" height="28" fill="white" transform="translate(0 0.5)"/>
</clipPath>
</defs>
</svg>
