<svg width="126" height="43" viewBox="0 0 126 43" fill="none" xmlns="http://www.w3.org/2000/svg">
<path d="M48.4203 32.7486C47.3942 32.7486 46.4667 32.5316 45.6379 32.0974C44.8091 31.6633 44.148 31.0713 43.6547 30.3214C43.1614 29.5716 42.895 28.7329 42.8555 27.8054V22.7142C42.895 21.7868 43.1614 20.958 43.6547 20.2278C44.1678 19.478 44.8387 18.8958 45.6675 18.4814C46.4963 18.067 47.4139 17.8598 48.4203 17.8598C49.7424 17.8598 50.9264 18.1854 51.9723 18.8366C53.0182 19.4878 53.8371 20.3758 54.4291 21.5006C55.0408 22.6254 55.3467 23.8982 55.3467 25.319C55.3467 26.7201 55.0408 27.983 54.4291 29.1078C53.8371 30.2326 53.0182 31.1206 51.9723 31.7718C50.9264 32.423 49.7424 32.7486 48.4203 32.7486ZM47.7691 29.167C48.4795 29.167 49.1011 29.0092 49.6339 28.6934C50.1864 28.358 50.6107 27.9041 50.9067 27.3318C51.2224 26.7398 51.3803 26.059 51.3803 25.2894C51.3803 24.5396 51.2224 23.8785 50.9067 23.3062C50.6107 22.7142 50.1864 22.2604 49.6339 21.9446C49.0814 21.6092 48.4499 21.4414 47.7395 21.4414C47.0291 21.4414 46.3976 21.6092 45.8451 21.9446C45.3123 22.2604 44.888 22.7142 44.5723 23.3062C44.2763 23.8785 44.1283 24.5396 44.1283 25.2894C44.1283 26.059 44.2763 26.7398 44.5723 27.3318C44.888 27.9041 45.3222 28.358 45.8747 28.6934C46.4272 29.0092 47.0587 29.167 47.7691 29.167ZM40.4875 32.4526V11.0518H44.3651V21.6782L43.7139 25.1118L44.3355 28.6046V32.4526H40.4875ZM63.9867 32.7486C62.7237 32.7486 61.5989 32.4822 60.6123 31.9494C59.6453 31.4166 58.8856 30.6766 58.3331 29.7294C57.7805 28.7822 57.5043 27.687 57.5043 26.4438V18.1558H61.4115V26.355C61.4115 26.947 61.5101 27.4601 61.7075 27.8942C61.9048 28.3086 62.2008 28.6244 62.5955 28.8414C62.9901 29.0585 63.4539 29.167 63.9867 29.167C64.7957 29.167 65.4272 28.9204 65.8811 28.427C66.3349 27.9337 66.5619 27.243 66.5619 26.355V18.1558H70.4395V26.4438C70.4395 27.7068 70.1632 28.8118 69.6107 29.759C69.0779 30.7062 68.3181 31.4462 67.3315 31.979C66.3645 32.4921 65.2496 32.7486 63.9867 32.7486ZM79.5658 32.7486C78.2436 32.7486 77.0596 32.423 76.0138 31.7718C74.9679 31.1206 74.1391 30.2326 73.5274 29.1078C72.9354 27.983 72.6394 26.7201 72.6394 25.319C72.6394 23.8982 72.9354 22.6254 73.5274 21.5006C74.1391 20.3758 74.958 19.4878 75.9842 18.8366C77.03 18.1854 78.2239 17.8598 79.5658 17.8598C80.5919 17.8598 81.5095 18.067 82.3186 18.4814C83.1474 18.8958 83.8084 19.478 84.3018 20.2278C84.8148 20.958 85.0911 21.7868 85.1306 22.7142V27.8054C85.0911 28.7329 84.8247 29.5716 84.3314 30.3214C83.838 31.0713 83.177 31.6633 82.3482 32.0974C81.5194 32.5316 80.5919 32.7486 79.5658 32.7486ZM80.217 29.167C80.9471 29.167 81.5786 29.0092 82.1114 28.6934C82.6639 28.358 83.0882 27.9041 83.3842 27.3318C83.6999 26.7398 83.8578 26.059 83.8578 25.2894C83.8578 24.5396 83.6999 23.8785 83.3842 23.3062C83.0882 22.7142 82.6639 22.2604 82.1114 21.9446C81.5786 21.6092 80.957 21.4414 80.2466 21.4414C79.5164 21.4414 78.8751 21.6092 78.3226 21.9446C77.7898 22.2801 77.3655 22.734 77.0498 23.3062C76.7538 23.8785 76.6058 24.5396 76.6058 25.2894C76.6058 26.059 76.7538 26.7398 77.0498 27.3318C77.3655 27.9041 77.7996 28.358 78.3522 28.6934C78.9047 29.0092 79.5263 29.167 80.217 29.167ZM87.4986 32.4526H83.6506V28.6046L84.2722 25.1118L83.621 21.6782V11.0518H87.4986V32.4526ZM95.8425 32.7782C95.0334 32.7782 94.2342 32.6697 93.4449 32.4526C92.6753 32.2356 91.9649 31.9396 91.3137 31.5646C90.6625 31.17 90.1001 30.6964 89.6265 30.1438L91.9353 27.8054C92.4286 28.358 93.0009 28.7724 93.6521 29.0486C94.3033 29.3249 95.0236 29.463 95.8129 29.463C96.4444 29.463 96.918 29.3742 97.2337 29.1966C97.5692 29.019 97.7369 28.7526 97.7369 28.3974C97.7369 28.0028 97.5593 27.6969 97.2041 27.4798C96.8687 27.2628 96.4247 27.0852 95.8721 26.947C95.3196 26.7892 94.7374 26.6214 94.1257 26.4438C93.5337 26.2465 92.9614 25.9998 92.4089 25.7038C91.8564 25.3881 91.4025 24.9638 91.0473 24.431C90.7118 23.8785 90.5441 23.1681 90.5441 22.2998C90.5441 21.3921 90.7612 20.6028 91.1953 19.9318C91.6492 19.2609 92.2905 18.738 93.1193 18.363C93.9481 17.9881 94.9249 17.8006 96.0497 17.8006C97.2337 17.8006 98.2993 18.0078 99.2465 18.4222C100.213 18.8366 101.013 19.4582 101.644 20.287L99.3057 22.6254C98.8716 22.0926 98.3782 21.7078 97.8257 21.471C97.2929 21.2342 96.7108 21.1158 96.0793 21.1158C95.507 21.1158 95.063 21.2046 94.7473 21.3822C94.4513 21.5598 94.3033 21.8065 94.3033 22.1222C94.3033 22.4774 94.471 22.7537 94.8065 22.951C95.1617 23.1484 95.6156 23.326 96.1681 23.4838C96.7207 23.622 97.2929 23.7897 97.8849 23.987C98.4966 24.1646 99.0689 24.4212 99.6017 24.7566C100.154 25.0921 100.598 25.5361 100.934 26.0886C101.289 26.6412 101.467 27.3516 101.467 28.2198C101.467 29.6209 100.963 30.7358 99.9569 31.5646C98.9505 32.3737 97.579 32.7782 95.8425 32.7782ZM108.995 32.7782C108.186 32.7782 107.387 32.6697 106.597 32.4526C105.828 32.2356 105.117 31.9396 104.466 31.5646C103.815 31.17 103.252 30.6964 102.779 30.1438L105.088 27.8054C105.581 28.358 106.153 28.7724 106.804 29.0486C107.456 29.3249 108.176 29.463 108.965 29.463C109.597 29.463 110.07 29.3742 110.386 29.1966C110.722 29.019 110.889 28.7526 110.889 28.3974C110.889 28.0028 110.712 27.6969 110.356 27.4798C110.021 27.2628 109.577 27.0852 109.024 26.947C108.472 26.7892 107.89 26.6214 107.278 26.4438C106.686 26.2465 106.114 25.9998 105.561 25.7038C105.009 25.3881 104.555 24.9638 104.2 24.431C103.864 23.8785 103.696 23.1681 103.696 22.2998C103.696 21.3921 103.914 20.6028 104.348 19.9318C104.802 19.2609 105.443 18.738 106.272 18.363C107.1 17.9881 108.077 17.8006 109.202 17.8006C110.386 17.8006 111.452 18.0078 112.399 18.4222C113.366 18.8366 114.165 19.4582 114.796 20.287L112.458 22.6254C112.024 22.0926 111.531 21.7078 110.978 21.471C110.445 21.2342 109.863 21.1158 109.232 21.1158C108.659 21.1158 108.215 21.2046 107.9 21.3822C107.604 21.5598 107.456 21.8065 107.456 22.1222C107.456 22.4774 107.623 22.7537 107.959 22.951C108.314 23.1484 108.768 23.326 109.32 23.4838C109.873 23.622 110.445 23.7897 111.037 23.987C111.649 24.1646 112.221 24.4212 112.754 24.7566C113.307 25.0921 113.751 25.5361 114.086 26.0886C114.441 26.6412 114.619 27.3516 114.619 28.2198C114.619 29.6209 114.116 30.7358 113.109 31.5646C112.103 32.3737 110.731 32.7782 108.995 32.7782Z" fill="white"/>
<path opacity="0.7" d="M20.5042 21.8087L17.908 21.8438C14.8185 21.8855 12.2802 19.4148 12.2384 16.3253V16.3253C12.1967 13.2358 14.6674 10.6974 17.7569 10.6557L30.5908 10.4823" stroke="#FFAA4C" stroke-width="6.7553" stroke-linecap="round"/>
<path opacity="0.7" d="M29.4567 33.1282L16.6159 33.0936C13.5293 33.0853 11.0338 30.5764 11.0421 27.4898V27.4898C11.0504 24.4092 13.5499 21.9163 16.6304 21.916L20.605 21.9156" stroke="#2FDBBC" stroke-width="6.7553" stroke-linecap="round"/>
<path opacity="0.7" d="M29.539 33.021L21.3406 23.0522C20.6012 22.1531 20.6487 20.8437 21.4513 20.0006L30.5325 10.4604" stroke="#A64CED" stroke-width="6.7553" stroke-linecap="round"/>
</svg>
