<svg width="194" height="57" viewBox="0 0 194 57" fill="none" xmlns="http://www.w3.org/2000/svg">
<path d="M194 51.2863C194 54.443 191.503 57 188.414 57H5.59377C2.5062 57 0 54.443 0 51.2863V5.72118C0 2.56595 2.5062 0 5.59377 0H188.412C191.503 0 193.999 2.56595 193.999 5.72118L194 51.2863Z" fill="#242424"/>
<path d="M42.6916 26.6965C42.6494 22.1749 46.5265 19.9751 46.7038 19.8726C44.508 16.782 41.1047 16.3597 39.9087 16.326C37.0503 16.0356 34.2776 17.9773 32.8215 17.9773C31.3364 17.9773 29.0941 16.3541 26.6775 16.4018C23.5677 16.4481 20.6584 18.1863 19.0628 20.8856C15.7699 26.3893 18.2258 34.4773 21.3806 38.926C22.9588 41.1047 24.8029 43.5374 27.2166 43.4519C29.578 43.3579 30.4601 41.9984 33.3098 41.9984C36.1333 41.9984 36.9616 43.4519 39.4233 43.3971C41.9577 43.3579 43.5533 41.2086 45.0762 39.0102C46.9 36.5129 47.6324 34.0536 47.6614 33.9273C47.6019 33.9077 42.7395 32.1161 42.6916 26.6965Z" fill="white"/>
<path d="M38.0414 13.3995C39.3114 11.8661 40.1805 9.77988 39.9392 7.66284C38.1009 7.74141 35.802 8.89042 34.4782 10.3902C33.3069 11.7117 32.2606 13.8779 32.5309 15.9149C34.5959 16.0637 36.7161 14.909 38.0414 13.3995Z" fill="white"/>
<path d="M76.8659 43.1388H73.5658L71.758 37.6548H65.4744L63.7524 43.1388H60.5394L66.7649 24.4685H70.61L76.8659 43.1388ZM71.2131 35.3539L69.5782 30.4787C69.4053 29.9807 69.0812 28.8078 68.6031 26.9615H68.545C68.3546 27.7556 68.048 28.9285 67.6266 30.4787L66.0208 35.3539H71.2131Z" fill="white"/>
<path d="M92.8756 36.2428C92.8756 38.5324 92.2348 40.3422 90.9531 41.6708C89.8051 42.8534 88.3795 43.4441 86.6778 43.4441C84.841 43.4441 83.5215 42.8071 82.7179 41.5333H82.6598V48.6251H79.5616V34.1089C79.5616 32.6695 79.5223 31.1922 79.4468 29.677H82.1715L82.3444 31.8109H82.4026C83.4358 30.2031 85.0037 29.4006 87.108 29.4006C88.753 29.4006 90.1262 30.0277 91.2248 31.2834C92.3263 32.5404 92.8756 34.1931 92.8756 36.2428ZM89.7193 36.3522C89.7193 35.0419 89.4142 33.9616 88.8009 33.1114C88.131 32.2248 87.2315 31.7814 86.1038 31.7814C85.3394 31.7814 84.6448 32.0283 84.0243 32.5152C83.4023 33.0062 82.9954 33.6473 82.8051 34.4414C82.7092 34.8118 82.6612 35.1148 82.6612 35.3533V37.598C82.6612 38.5773 82.9722 39.4036 83.5942 40.0784C84.2161 40.7532 85.0241 41.0899 86.0181 41.0899C87.185 41.0899 88.0932 40.655 88.7428 39.788C89.3938 38.9196 89.7193 37.7748 89.7193 36.3522Z" fill="white"/>
<path d="M108.915 36.2428C108.915 38.5324 108.274 40.3422 106.991 41.6708C105.844 42.8534 104.418 43.4441 102.717 43.4441C100.88 43.4441 99.5605 42.8071 98.7583 41.5333H98.7002V48.6251H95.602V34.1089C95.602 32.6695 95.5627 31.1922 95.4872 29.677H98.2119L98.3848 31.8109H98.443C99.4747 30.2031 101.043 29.4006 103.148 29.4006C104.792 29.4006 106.165 30.0277 107.267 31.2834C108.364 32.5404 108.915 34.1931 108.915 36.2428ZM105.758 36.3522C105.758 35.0419 105.452 33.9616 104.838 33.1114C104.168 32.2248 103.272 31.7814 102.143 31.7814C101.377 31.7814 100.684 32.0283 100.062 32.5152C99.4398 33.0062 99.0344 33.6473 98.844 34.4414C98.7496 34.8118 98.7002 35.1148 98.7002 35.3533V37.598C98.7002 38.5773 99.0112 39.4036 99.6302 40.0784C100.252 40.7518 101.06 41.0899 102.057 41.0899C103.224 41.0899 104.132 40.655 104.782 39.788C105.433 38.9196 105.758 37.7748 105.758 36.3522Z" fill="white"/>
<path d="M126.847 37.9035C126.847 39.4916 126.276 40.7837 125.129 41.7812C123.869 42.8713 122.115 43.4156 119.861 43.4156C117.78 43.4156 116.112 43.0284 114.849 42.2526L115.567 39.7595C116.927 40.5536 118.42 40.952 120.046 40.952C121.213 40.952 122.121 40.6967 122.774 40.1888C123.423 39.681 123.747 38.9992 123.747 38.149C123.747 37.3914 123.48 36.753 122.944 36.2354C122.41 35.7177 121.519 35.2365 120.276 34.7917C116.89 33.5726 115.198 31.7866 115.198 29.4381C115.198 27.9033 115.791 26.6448 116.978 25.6656C118.161 24.6849 119.739 24.1953 121.713 24.1953C123.473 24.1953 124.934 24.4913 126.101 25.082L125.327 27.5203C124.237 26.9479 123.005 26.6617 121.626 26.6617C120.536 26.6617 119.684 26.9212 119.074 27.4375C118.558 27.8991 118.299 28.4617 118.299 29.1281C118.299 29.866 118.594 30.4763 119.187 30.9561C119.703 31.3994 120.64 31.8792 122 32.3969C123.664 33.0437 124.887 33.7998 125.673 34.6669C126.456 35.5311 126.847 36.6127 126.847 37.9035Z" fill="white"/>
<path d="M137.09 31.9212H133.675V38.4575C133.675 40.1199 134.277 40.9505 135.483 40.9505C136.037 40.9505 136.496 40.9042 136.859 40.8116L136.945 43.083C136.335 43.3032 135.531 43.4141 134.536 43.4141C133.312 43.4141 132.356 43.0535 131.666 42.3338C130.978 41.6127 130.632 40.4033 130.632 38.7044V31.9184H128.598V29.6736H130.632V27.2087L133.675 26.322V29.6736H137.09V31.9212Z" fill="white"/>
<path d="M152.498 36.2968C152.498 38.3662 151.885 40.0651 150.661 41.3937C149.378 42.7616 147.675 43.4434 145.552 43.4434C143.506 43.4434 141.877 42.7882 140.662 41.4779C139.447 40.1675 138.84 38.5135 138.84 36.5199C138.84 34.4337 139.465 32.7249 140.719 31.3964C141.97 30.0664 143.658 29.4014 145.782 29.4014C147.828 29.4014 149.474 30.0565 150.717 31.3683C151.905 32.6408 152.498 34.2836 152.498 36.2968ZM149.284 36.3936C149.284 35.152 149.009 34.0872 148.453 33.1991C147.803 32.1245 146.874 31.5886 145.671 31.5886C144.426 31.5886 143.48 32.1259 142.83 33.1991C142.274 34.0886 141.999 35.1703 141.999 36.4497C141.999 37.6913 142.274 38.7562 142.83 39.6428C143.5 40.7175 144.436 41.2534 145.644 41.2534C146.826 41.2534 147.755 40.7063 148.425 39.6148C148.996 38.7099 149.284 37.6338 149.284 36.3936Z" fill="white"/>
<path d="M162.569 32.3075C162.262 32.2528 161.935 32.2248 161.592 32.2248C160.502 32.2248 159.66 32.6218 159.067 33.4173C158.551 34.1187 158.292 35.0054 158.292 36.0758V43.1396H155.195L155.224 33.9167C155.224 32.365 155.185 30.9523 155.108 29.6784H157.807L157.92 32.2542H158.006C158.333 31.369 158.849 30.6563 159.555 30.1217C160.245 29.6405 160.991 29.4006 161.794 29.4006C162.081 29.4006 162.339 29.4203 162.569 29.4553V32.3075Z" fill="white"/>
<path d="M176.425 35.771C176.425 36.3069 176.389 36.7587 176.312 37.1277H167.017C167.053 38.4576 167.502 39.4748 168.366 40.1762C169.149 40.8034 170.162 41.1176 171.406 41.1176C172.782 41.1176 174.037 40.9058 175.167 40.4807L175.652 42.557C174.332 43.1126 172.775 43.389 170.977 43.389C168.815 43.389 167.117 42.7745 165.882 41.5469C164.65 40.3193 164.032 38.6709 164.032 36.603C164.032 34.5729 164.606 32.8824 165.756 31.5341C166.959 30.0947 168.585 29.375 170.631 29.375C172.641 29.375 174.162 30.0947 175.196 31.5341C176.014 32.6775 176.425 34.0917 176.425 35.771ZM173.471 34.9952C173.491 34.1085 173.289 33.3425 172.869 32.6958C172.333 31.8638 171.509 31.4485 170.4 31.4485C169.387 31.4485 168.563 31.854 167.934 32.6677C167.418 33.3145 167.112 34.0903 167.017 34.9938H173.471V34.9952Z" fill="white"/>
<path d="M70.1887 12.9827C70.1887 14.6339 69.6757 15.8769 68.6512 16.7117C67.7023 17.4819 66.3537 17.8677 64.607 17.8677C63.7409 17.8677 62.9998 17.8312 62.3793 17.7583V8.73597C63.1887 8.6097 64.0606 8.54517 65.0023 8.54517C66.6662 8.54517 67.9203 8.8945 68.766 9.59316C69.7135 10.383 70.1887 11.5124 70.1887 12.9827ZM68.5829 13.0234C68.5829 11.9529 68.2894 11.1322 67.7023 10.5598C67.1152 9.98879 66.2578 9.70259 65.1287 9.70259C64.6492 9.70259 64.2408 9.73346 63.9022 9.79799V16.657C64.0897 16.685 64.4326 16.6977 64.9311 16.6977C66.0965 16.6977 66.996 16.3848 67.6296 15.7591C68.2632 15.1334 68.5829 14.2215 68.5829 13.0234Z" fill="white"/>
<path d="M78.7028 14.4245C78.7028 15.4417 78.4019 16.275 77.8003 16.9288C77.1696 17.6008 76.3341 17.9361 75.2907 17.9361C74.2851 17.9361 73.4844 17.6148 72.8871 16.9695C72.2913 16.3255 71.9934 15.5132 71.9934 14.534C71.9934 13.5098 72.3 12.6695 72.9162 12.0171C73.5323 11.3647 74.3606 11.0378 75.404 11.0378C76.4096 11.0378 77.2176 11.3591 77.8294 12.0031C78.4107 12.6288 78.7028 13.4369 78.7028 14.4245ZM77.1231 14.4722C77.1231 13.862 76.9866 13.3387 76.7148 12.9023C76.3951 12.3748 75.9403 12.1111 75.3488 12.1111C74.737 12.1111 74.272 12.3748 73.9523 12.9023C73.6791 13.3387 73.544 13.8704 73.544 14.4989C73.544 15.1092 73.6806 15.6325 73.9523 16.0688C74.2822 16.5963 74.7414 16.86 75.3343 16.86C75.9156 16.86 76.3719 16.5921 76.7003 16.0548C76.9822 15.61 77.1231 15.0825 77.1231 14.4722Z" fill="white"/>
<path d="M90.1192 11.1729L87.9758 17.7863H86.5807L85.6928 14.9145C85.4676 14.1976 85.2845 13.4849 85.1421 12.7778H85.1144C84.9822 13.5045 84.7991 14.2158 84.5637 14.9145L83.6206 17.7863H82.2095L80.194 11.1729H81.759L82.5336 14.3168C82.7211 15.0604 82.8751 15.7689 82.9986 16.4395H83.0262C83.1396 15.8867 83.327 15.1825 83.5915 14.3309L84.5637 11.1743H85.8047L86.7362 14.2635C86.9614 15.0169 87.1445 15.7422 87.2855 16.4409H87.3276C87.4308 15.7605 87.5863 15.0351 87.7927 14.2635L88.6239 11.1743H90.1192V11.1729Z" fill="white"/>
<path d="M98.0143 17.7858H96.4914V13.9979C96.4914 12.8306 96.0322 12.247 95.1108 12.247C94.6589 12.247 94.2942 12.4069 94.0108 12.7282C93.7303 13.0495 93.5879 13.4283 93.5879 13.8618V17.7844H92.065V13.0621C92.065 12.4813 92.0461 11.8514 92.0098 11.1695H93.3481L93.4194 12.2035H93.4615C93.6388 11.8822 93.9033 11.6171 94.2506 11.4052C94.6633 11.1583 95.1254 11.0334 95.6311 11.0334C96.2705 11.0334 96.8023 11.2327 97.2252 11.6325C97.7513 12.1221 98.0143 12.8531 98.0143 13.8239V17.7858Z" fill="white"/>
<path d="M102.214 17.7862H100.693V8.13818H102.214V17.7862Z" fill="white"/>
<path d="M111.18 14.4245C111.18 15.4417 110.879 16.275 110.278 16.9288C109.647 17.6008 108.81 17.9361 107.768 17.9361C106.761 17.9361 105.96 17.6148 105.365 16.9695C104.769 16.3255 104.471 15.5132 104.471 14.534C104.471 13.5098 104.778 12.6695 105.394 12.0171C106.01 11.3647 106.838 11.0378 107.88 11.0378C108.887 11.0378 109.694 11.3591 110.307 12.0031C110.888 12.6288 111.18 13.4369 111.18 14.4245ZM109.599 14.4722C109.599 13.862 109.463 13.3387 109.191 12.9023C108.873 12.3748 108.416 12.1111 107.826 12.1111C107.213 12.1111 106.748 12.3748 106.43 12.9023C106.157 13.3387 106.021 13.8704 106.021 14.4989C106.021 15.1092 106.158 15.6325 106.43 16.0688C106.76 16.5963 107.219 16.86 107.812 16.86C108.393 16.86 108.848 16.5921 109.176 16.0548C109.46 15.61 109.599 15.0825 109.599 14.4722Z" fill="white"/>
<path d="M118.551 17.786H117.183L117.07 17.0242H117.028C116.56 17.6317 115.893 17.9361 115.027 17.9361C114.38 17.9361 113.857 17.7355 113.463 17.337C113.106 16.9751 112.927 16.5247 112.927 15.9902C112.927 15.1821 113.276 14.5662 113.978 14.1397C114.678 13.7132 115.663 13.5042 116.932 13.514V13.3906C116.932 12.5193 116.458 12.0844 115.509 12.0844C114.833 12.0844 114.238 12.2486 113.723 12.5741L113.414 11.6088C114.05 11.2286 114.836 11.0378 115.763 11.0378C117.554 11.0378 118.452 11.9498 118.452 13.7736V16.2091C118.452 16.8699 118.485 17.396 118.551 17.786ZM116.97 15.5132V14.4933C115.29 14.4652 114.45 14.91 114.45 15.8261C114.45 16.1712 114.546 16.4293 114.742 16.6019C114.938 16.7745 115.188 16.86 115.486 16.86C115.82 16.86 116.133 16.7576 116.417 16.5542C116.704 16.3494 116.88 16.0898 116.945 15.7714C116.961 15.6998 116.97 15.6128 116.97 15.5132Z" fill="white"/>
<path d="M127.204 17.7862H125.853L125.782 16.7242H125.74C125.308 17.5323 124.573 17.9363 123.54 17.9363C122.714 17.9363 122.027 17.6235 121.482 16.9978C120.937 16.372 120.665 15.5597 120.665 14.5623C120.665 13.4918 120.96 12.6248 121.553 11.9626C122.127 11.3453 122.83 11.0367 123.667 11.0367C124.587 11.0367 125.231 11.3355 125.597 11.9345H125.626V8.13818H127.151V16.0045C127.151 16.6484 127.168 17.2419 127.204 17.7862ZM125.626 14.9972V13.8945C125.626 13.7037 125.612 13.5493 125.584 13.4315C125.498 13.0779 125.314 12.7805 125.033 12.5406C124.75 12.3007 124.409 12.1801 124.015 12.1801C123.447 12.1801 123.002 12.3975 122.675 12.8338C122.351 13.2701 122.187 13.8271 122.187 14.5075C122.187 15.1613 122.342 15.6916 122.655 16.0999C122.984 16.5348 123.429 16.7522 123.986 16.7522C124.486 16.7522 124.885 16.5713 125.189 16.2079C125.482 15.8726 125.626 15.4686 125.626 14.9972Z" fill="white"/>
<path d="M140.229 14.4245C140.229 15.4417 139.929 16.275 139.327 16.9288C138.696 17.6008 137.862 17.9361 136.817 17.9361C135.813 17.9361 135.012 17.6148 134.414 16.9695C133.818 16.3255 133.52 15.5132 133.52 14.534C133.52 13.5098 133.827 12.6695 134.443 12.0171C135.059 11.3647 135.887 11.0378 136.932 11.0378C137.936 11.0378 138.746 11.3591 139.356 12.0031C139.937 12.6288 140.229 13.4369 140.229 14.4245ZM138.651 14.4722C138.651 13.862 138.515 13.3387 138.243 12.9023C137.922 12.3748 137.468 12.1111 136.875 12.1111C136.265 12.1111 135.8 12.3748 135.479 12.9023C135.206 13.3387 135.071 13.8704 135.071 14.4989C135.071 15.1092 135.207 15.6325 135.479 16.0688C135.809 16.5963 136.268 16.86 136.861 16.86C137.442 16.86 137.9 16.5921 138.228 16.0548C138.509 15.61 138.651 15.0825 138.651 14.4722Z" fill="white"/>
<path d="M148.418 17.7858H146.896V13.9979C146.896 12.8306 146.437 12.247 145.514 12.247C145.062 12.247 144.698 12.4069 144.416 12.7282C144.134 13.0495 143.993 13.4283 143.993 13.8618V17.7844H142.469V13.0621C142.469 12.4813 142.451 11.8514 142.415 11.1695H143.752L143.823 12.2035H143.865C144.044 11.8822 144.308 11.6171 144.654 11.4052C145.068 11.1583 145.529 11.0334 146.036 11.0334C146.674 11.0334 147.206 11.2327 147.629 11.6325C148.156 12.1221 148.418 12.8531 148.418 13.8239V17.7858Z" fill="white"/>
<path d="M158.667 12.2742H156.99V15.487C156.99 16.3035 157.288 16.7117 157.878 16.7117C158.151 16.7117 158.378 16.6893 158.557 16.643L158.596 17.7583C158.295 17.8678 157.9 17.9225 157.413 17.9225C156.812 17.9225 156.344 17.7457 156.005 17.3922C155.665 17.0386 155.496 16.4438 155.496 15.609V12.2742H154.495V11.1729H155.496V9.96079L156.989 9.52588V11.1715H158.666V12.2742H158.667Z" fill="white"/>
<path d="M166.73 17.7862H165.205V14.0263C165.205 12.8408 164.746 12.2474 163.826 12.2474C163.12 12.2474 162.637 12.5911 162.373 13.2786C162.328 13.4231 162.302 13.5998 162.302 13.8075V17.7848H160.78V8.13818H162.302V12.1239H162.331C162.81 11.3986 163.498 11.0367 164.388 11.0367C165.019 11.0367 165.541 11.2359 165.955 11.6357C166.471 12.1338 166.73 12.8745 166.73 13.8538V17.7862Z" fill="white"/>
<path d="M175.046 14.1663C175.046 14.4301 175.026 14.6517 174.989 14.8327H170.422C170.442 15.4865 170.66 15.9845 171.083 16.3297C171.47 16.6383 171.968 16.7926 172.579 16.7926C173.254 16.7926 173.87 16.6888 174.426 16.4798L174.664 17.5011C174.014 17.7733 173.25 17.9094 172.365 17.9094C171.304 17.9094 170.469 17.6077 169.864 17.0045C169.257 16.4012 168.956 15.5917 168.956 14.576C168.956 13.5785 169.236 12.748 169.802 12.0858C170.392 11.3787 171.189 11.0251 172.196 11.0251C173.182 11.0251 173.93 11.3787 174.436 12.0858C174.844 12.6469 175.046 13.3414 175.046 14.1663ZM173.593 13.7861C173.605 13.3498 173.504 12.9738 173.298 12.6568C173.033 12.2485 172.631 12.0437 172.086 12.0437C171.589 12.0437 171.184 12.2429 170.874 12.6427C170.621 12.9612 170.471 13.3414 170.422 13.7861H173.593Z" fill="white"/>
</svg>
