<svg width="143" height="185" viewBox="0 0 143 185" fill="none" xmlns="http://www.w3.org/2000/svg">
<path opacity="0.7" d="M79.396 57.0172V103.396" stroke="#A64CED" stroke-width="111.31" stroke-linecap="round"/>
<path d="M96.5563 48.6689C95.165 54.2344 85.8891 61.1913 78.9323 61.1913" stroke="black" stroke-width="1.85517" stroke-linecap="round" stroke-linejoin="round"/>
<path d="M112.537 79.7429C110.836 86.236 105.58 97.2742 98.1593 89.4825C88.8835 79.7429 79.1438 65.3653 69.4042 64.4378C59.6646 63.5102 54.0992 66.7567 55.4905 70.467C56.4206 72.9475 60.6674 73.217 64.7663 73.0769M70.3317 72.786C68.7944 72.8373 66.7985 73.0074 64.7663 73.0769M74.9697 79.2791C73.1145 79.928 70.7956 79.9522 69.4042 79.928M64.7663 73.0769C57.8094 74.1774 58.737 79.7429 69.4042 79.928M69.4042 79.928C62.9111 81.1342 64.7663 85.7722 70.3317 86.7432M74.0421 86.6997C72.5843 86.957 71.3485 86.9447 70.3317 86.7432M70.3317 86.7432C66.9088 88.9896 67.8523 92.5127 72.6507 92.9406M76.3611 92.729C74.9423 92.9794 73.7037 93.0346 72.6507 92.9406M72.6507 92.9406C83.3179 115.919 108.363 125.194 126.451 107.57" stroke="black" stroke-width="1.85517" stroke-linecap="round"/>
<circle cx="65.0185" cy="45.4224" r="2.31896" fill="black"/>
<circle cx="84.4978" cy="41.712" r="2.31896" fill="black"/>
<path d="M77.5409 157.196V221.199H38.5824L42.8354 217.478C44.8484 215.717 46.0031 213.172 46.0031 210.497V146.065" stroke="black" stroke-width="1.85517" stroke-linecap="round" stroke-linejoin="round"/>
<path d="M81.2512 157.196V221.199H120.21L115.957 217.478C113.944 215.717 112.789 213.172 112.789 210.497V146.065" stroke="black" stroke-width="1.85517" stroke-linecap="round" stroke-linejoin="round"/>
<path d="M34.2773 48.9488C33.2433 54.535 32.8147 60.2024 32.0254 65.8274" stroke="white" stroke-width="1.85517" stroke-miterlimit="1.5" stroke-linecap="round" stroke-linejoin="round"/>
<path d="M48.9226 43.1034C44.224 50.9491 40.3062 59.4364 36.8466 67.898" stroke="white" stroke-width="1.85517" stroke-miterlimit="1.5" stroke-linecap="round" stroke-linejoin="round"/>
<path d="M57.3526 56.7173C51.9568 59.9051 45.7922 66.6604 41.1504 71.174" stroke="white" stroke-width="1.85517" stroke-miterlimit="1.5" stroke-linecap="round" stroke-linejoin="round"/>
<rect opacity="0.7" x="5.18945" y="75.1758" width="34.3206" height="64.0032" rx="9.27583" transform="rotate(-15 5.18945 75.1758)" fill="#2FDBBC"/>
<rect opacity="0.7" x="9.73364" y="77.7993" width="9.66336" height="14.3256" rx="4.83168" transform="rotate(-15 9.73364 77.7993)" fill="#2FDBBC"/>
<path d="M33.6233 96.6847C32.6052 92.1364 14.4653 91.748 8.89981 100.83C3.33432 109.912 6.25925 123.93 15.5353 126.798C24.8114 129.666 35.9423 126.32 36.406 122.018C36.7771 118.577 28.8428 118.994 24.6687 118.994C29.3066 118.516 37.1911 118.672 36.406 114.849C35.621 111.025 26.6664 112.14 22.4923 112.459C27.4394 111.662 37.1911 111.346 36.406 106.723C35.621 102.099 26.2147 103.857 21.4221 104.654C26.6784 103.22 34.8721 102.264 33.6233 96.6847Z" fill="#BE7FEF" stroke="black" stroke-width="1.85517" stroke-linecap="round" stroke-linejoin="round"/>
</svg>
