<svg width="75" height="22" viewBox="0 0 75 22" fill="none" xmlns="http://www.w3.org/2000/svg">
<path d="M8.42031 21.7486C7.39417 21.7486 6.46671 21.5316 5.63791 21.0974C4.80911 20.6633 4.14804 20.0713 3.65471 19.3214C3.16137 18.5716 2.89497 17.7329 2.85551 16.8054V11.7142C2.89497 10.7868 3.16137 9.95797 3.65471 9.22784C4.16777 8.47797 4.83871 7.89584 5.66751 7.48144C6.49631 7.06704 7.41391 6.85984 8.42031 6.85984C9.74244 6.85984 10.9264 7.18544 11.9723 7.83664C13.0182 8.48784 13.8371 9.37584 14.4291 10.5006C15.0408 11.6254 15.3467 12.8982 15.3467 14.319C15.3467 15.7201 15.0408 16.983 14.4291 18.1078C13.8371 19.2326 13.0182 20.1206 11.9723 20.7718C10.9264 21.423 9.74244 21.7486 8.42031 21.7486ZM7.76911 18.167C8.47951 18.167 9.10111 18.0092 9.63391 17.6934C10.1864 17.358 10.6107 16.9041 10.9067 16.3318C11.2224 15.7398 11.3803 15.059 11.3803 14.2894C11.3803 13.5396 11.2224 12.8785 10.9067 12.3062C10.6107 11.7142 10.1864 11.2604 9.63391 10.9446C9.08137 10.6092 8.44991 10.4414 7.73951 10.4414C7.02911 10.4414 6.39764 10.6092 5.84511 10.9446C5.31231 11.2604 4.88804 11.7142 4.57231 12.3062C4.27631 12.8785 4.12831 13.5396 4.12831 14.2894C4.12831 15.059 4.27631 15.7398 4.57231 16.3318C4.88804 16.9041 5.32217 17.358 5.87471 17.6934C6.42724 18.0092 7.05871 18.167 7.76911 18.167ZM0.487506 21.4526V0.051835H4.36511V10.6782L3.71391 14.1118L4.33551 17.6046V21.4526H0.487506ZM23.9867 21.7486C22.7237 21.7486 21.5989 21.4822 20.6123 20.9494C19.6453 20.4166 18.8856 19.6766 18.3331 18.7294C17.7805 17.7822 17.5043 16.687 17.5043 15.4438V7.15584H21.4115V15.355C21.4115 15.947 21.5101 16.4601 21.7075 16.8942C21.9048 17.3086 22.2008 17.6244 22.5955 17.8414C22.9901 18.0585 23.4539 18.167 23.9867 18.167C24.7957 18.167 25.4272 17.9204 25.8811 17.427C26.3349 16.9337 26.5619 16.243 26.5619 15.355V7.15584H30.4395V15.4438C30.4395 16.7068 30.1632 17.8118 29.6107 18.759C29.0779 19.7062 28.3181 20.4462 27.3315 20.979C26.3645 21.4921 25.2496 21.7486 23.9867 21.7486ZM39.5658 21.7486C38.2436 21.7486 37.0596 21.423 36.0138 20.7718C34.9679 20.1206 34.1391 19.2326 33.5274 18.1078C32.9354 16.983 32.6394 15.7201 32.6394 14.319C32.6394 12.8982 32.9354 11.6254 33.5274 10.5006C34.1391 9.37584 34.958 8.48784 35.9842 7.83664C37.03 7.18544 38.2239 6.85984 39.5658 6.85984C40.5919 6.85984 41.5095 7.06704 42.3186 7.48144C43.1474 7.89584 43.8084 8.47797 44.3018 9.22784C44.8148 9.95797 45.0911 10.7868 45.1306 11.7142V16.8054C45.0911 17.7329 44.8247 18.5716 44.3314 19.3214C43.838 20.0713 43.177 20.6633 42.3482 21.0974C41.5194 21.5316 40.5919 21.7486 39.5658 21.7486ZM40.217 18.167C40.9471 18.167 41.5786 18.0092 42.1114 17.6934C42.6639 17.358 43.0882 16.9041 43.3842 16.3318C43.6999 15.7398 43.8578 15.059 43.8578 14.2894C43.8578 13.5396 43.6999 12.8785 43.3842 12.3062C43.0882 11.7142 42.6639 11.2604 42.1114 10.9446C41.5786 10.6092 40.957 10.4414 40.2466 10.4414C39.5164 10.4414 38.8751 10.6092 38.3226 10.9446C37.7898 11.2801 37.3655 11.734 37.0498 12.3062C36.7538 12.8785 36.6058 13.5396 36.6058 14.2894C36.6058 15.059 36.7538 15.7398 37.0498 16.3318C37.3655 16.9041 37.7996 17.358 38.3522 17.6934C38.9047 18.0092 39.5263 18.167 40.217 18.167ZM47.4986 21.4526H43.6506V17.6046L44.2722 14.1118L43.621 10.6782V0.051835H47.4986V21.4526ZM55.8425 21.7782C55.0334 21.7782 54.2342 21.6697 53.4449 21.4526C52.6753 21.2356 51.9649 20.9396 51.3137 20.5646C50.6625 20.17 50.1001 19.6964 49.6265 19.1438L51.9353 16.8054C52.4286 17.358 53.0009 17.7724 53.6521 18.0486C54.3033 18.3249 55.0236 18.463 55.8129 18.463C56.4444 18.463 56.918 18.3742 57.2337 18.1966C57.5692 18.019 57.7369 17.7526 57.7369 17.3974C57.7369 17.0028 57.5593 16.6969 57.2041 16.4798C56.8687 16.2628 56.4247 16.0852 55.8721 15.947C55.3196 15.7892 54.7374 15.6214 54.1257 15.4438C53.5337 15.2465 52.9614 14.9998 52.4089 14.7038C51.8564 14.3881 51.4025 13.9638 51.0473 13.431C50.7118 12.8785 50.5441 12.1681 50.5441 11.2998C50.5441 10.3921 50.7612 9.60277 51.1953 8.93184C51.6492 8.2609 52.2905 7.73797 53.1193 7.36304C53.9481 6.9881 54.9249 6.80064 56.0497 6.80064C57.2337 6.80064 58.2993 7.00784 59.2465 7.42224C60.2135 7.83664 61.0127 8.45824 61.6441 9.28704L59.3057 11.6254C58.8716 11.0926 58.3782 10.7078 57.8257 10.471C57.2929 10.2342 56.7108 10.1158 56.0793 10.1158C55.507 10.1158 55.063 10.2046 54.7473 10.3822C54.4513 10.5598 54.3033 10.8065 54.3033 11.1222C54.3033 11.4774 54.471 11.7537 54.8065 11.951C55.1617 12.1484 55.6156 12.326 56.1681 12.4838C56.7207 12.622 57.2929 12.7897 57.8849 12.987C58.4966 13.1646 59.0689 13.4212 59.6017 13.7566C60.1542 14.0921 60.5983 14.5361 60.9337 15.0886C61.2889 15.6412 61.4665 16.3516 61.4665 17.2198C61.4665 18.6209 60.9633 19.7358 59.9569 20.5646C58.9505 21.3737 57.579 21.7782 55.8425 21.7782ZM68.9949 21.7782C68.1858 21.7782 67.3866 21.6697 66.5973 21.4526C65.8277 21.2356 65.1173 20.9396 64.4661 20.5646C63.8149 20.17 63.2525 19.6964 62.7789 19.1438L65.0877 16.8054C65.581 17.358 66.1533 17.7724 66.8045 18.0486C67.4557 18.3249 68.1759 18.463 68.9653 18.463C69.5967 18.463 70.0703 18.3742 70.3861 18.1966C70.7215 18.019 70.8893 17.7526 70.8893 17.3974C70.8893 17.0028 70.7117 16.6969 70.3565 16.4798C70.021 16.2628 69.577 16.0852 69.0245 15.947C68.4719 15.7892 67.8898 15.6214 67.2781 15.4438C66.6861 15.2465 66.1138 14.9998 65.5613 14.7038C65.0087 14.3881 64.5549 13.9638 64.1997 13.431C63.8642 12.8785 63.6965 12.1681 63.6965 11.2998C63.6965 10.3921 63.9135 9.60277 64.3477 8.93184C64.8015 8.2609 65.4429 7.73797 66.2717 7.36304C67.1005 6.9881 68.0773 6.80064 69.2021 6.80064C70.3861 6.80064 71.4517 7.00784 72.3989 7.42224C73.3658 7.83664 74.165 8.45824 74.7965 9.28704L72.4581 11.6254C72.0239 11.0926 71.5306 10.7078 70.9781 10.471C70.4453 10.2342 69.8631 10.1158 69.2317 10.1158C68.6594 10.1158 68.2154 10.2046 67.8997 10.3822C67.6037 10.5598 67.4557 10.8065 67.4557 11.1222C67.4557 11.4774 67.6234 11.7537 67.9589 11.951C68.3141 12.1484 68.7679 12.326 69.3205 12.4838C69.873 12.622 70.4453 12.7897 71.0373 12.987C71.649 13.1646 72.2213 13.4212 72.7541 13.7566C73.3066 14.0921 73.7506 14.5361 74.0861 15.0886C74.4413 15.6412 74.6189 16.3516 74.6189 17.2198C74.6189 18.6209 74.1157 19.7358 73.1093 20.5646C72.1029 21.3737 70.7314 21.7782 68.9949 21.7782Z" fill="white"/>
</svg>
