<svg width="128" height="32" viewBox="0 0 128 32" fill="none" xmlns="http://www.w3.org/2000/svg">
<g clip-path="url(#clip0_1_9125)">
<path d="M52.8 21.2364C50.7637 23.7091 47.8546 25.3091 44.6546 25.3091C39.1273 25.3091 34.7637 21.3818 34.7637 16.2909C34.7637 13.8182 35.7819 11.4909 37.6728 9.74544C39.4182 7.99999 41.8909 7.12726 44.3637 7.27272C47.5637 7.27272 50.6182 8.72726 52.5091 11.3454L48.8728 13.9636C47.8546 12.3636 46.2546 11.3454 44.3637 11.3454C41.6 11.3454 39.2728 13.6727 39.2728 16.4364C39.4182 19.3454 41.7455 21.5273 44.5091 21.5273C46.4 21.5273 48.1455 20.6545 49.1637 19.0545L52.8 21.2364Z" fill="#181818"/>
<path d="M59.3455 0H54.8364V24.8727H59.3455V0Z" fill="#181818"/>
<path d="M71.4183 21.3818C74.3273 21.3818 76.8001 19.0545 76.9455 16.1454C76.8001 13.2363 74.3273 10.909 71.4183 10.909C68.5092 10.909 66.0364 13.2363 65.891 16.1454C66.0364 19.0545 68.3637 21.3818 71.4183 21.3818ZM71.4183 7.12721C73.891 6.98176 76.3637 7.85448 78.2546 9.59994C80.1455 11.3454 81.1637 13.6727 81.3092 16.1454C81.1637 18.6181 80.1455 21.0908 78.2546 22.6908C76.3637 24.4363 73.891 25.309 71.4183 25.1636C65.891 25.1636 61.5273 21.2363 61.5273 16.1454C61.5273 11.0545 65.891 7.12721 71.4183 7.12721Z" fill="#181818"/>
<path d="M80.4364 7.41821H85.8182L90.1819 16.7273L94.8364 7.41821H99.7819L90.1819 25.8909L80.4364 7.41821Z" fill="#181818"/>
<path d="M112.727 13.6727C112 11.9272 110.4 10.909 108.509 10.909C106.618 10.909 104.873 11.9272 104 13.6727H112.727ZM115.636 22.8363C113.745 24.4363 111.418 25.1636 108.945 25.1636C103.418 25.1636 99.0546 21.2363 99.0546 16.1454C99.0546 13.6727 100.073 11.3454 101.818 9.59994C103.564 7.85448 106.036 6.98176 108.509 7.12721C110.982 6.98176 113.309 7.99994 115.055 9.74539C116.8 11.4908 117.673 13.8181 117.527 16.2908V17.4545H103.564C104.291 19.7818 106.473 21.3818 108.945 21.3818C110.4 21.3818 111.855 20.7999 113.018 19.6363L115.636 22.8363ZM119.709 15.1272C119.709 10.909 122.909 7.56357 128 7.56357V11.6363C126.982 11.6363 125.818 12.0727 125.091 12.7999C124.364 13.5272 124.073 14.6908 124.218 15.709V24.8727H119.709V15.1272Z" fill="#181818"/>
<path d="M14.1091 8.14536C14.1091 5.23627 12.3637 2.76354 9.74551 1.5999C7.12733 0.436268 4.07278 1.01809 2.03642 3.05445C5.56633e-05 5.09081 -0.581763 8.14536 0.436419 10.7635C1.4546 13.3817 4.07278 15.1272 6.98187 15.1272H14.1091V8.14536ZM16.1455 8.14536C16.1455 5.23627 17.891 2.76354 20.5091 1.5999C23.1273 0.436268 26.1819 1.01809 28.2182 3.05445C30.2546 5.09081 30.8364 8.14536 29.8182 10.7635C28.8001 13.3817 26.1819 15.1272 23.2728 15.1272H16.1455V8.14536ZM16.1455 24.1454C16.1455 27.0544 17.891 29.5272 20.5091 30.6908C23.1273 31.8544 26.1819 31.2726 28.2182 29.2363C30.2546 27.1999 30.8364 24.1454 29.8182 21.5272C28.8001 18.909 26.1819 17.1635 23.2728 17.1635H16.1455V24.1454ZM6.98187 29.2363C9.74551 29.2363 12.0728 27.0544 12.0728 24.1454V19.0544H6.98187C4.21824 19.0544 1.89096 21.2363 1.89096 24.1454C1.89096 27.0544 4.21824 29.2363 6.98187 29.2363ZM14.1091 24.1454C14.1091 27.0544 12.3637 29.5272 9.74551 30.6908C7.12733 31.8544 4.07278 31.2726 2.03642 29.2363C5.56633e-05 27.1999 -0.581763 24.1454 0.436419 21.5272C1.4546 18.909 4.07278 17.1635 6.98187 17.1635H14.1091V24.1454Z" fill="#444444"/>
</g>
<defs>
<clipPath id="clip0_1_9125">
<rect width="128" height="32" fill="white"/>
</clipPath>
</defs>
</svg>
