<svg width="91" height="43" viewBox="0 0 91 43" fill="none" xmlns="http://www.w3.org/2000/svg">
<g clip-path="url(#clip0_1_9096)">
<path d="M15.5567 43.0001C15.1743 42.94 14.7881 42.8971 14.4104 42.8152C12.6842 42.4406 11.4505 41.4307 10.8051 39.8005C9.85544 37.3992 9.79067 34.9331 10.6342 32.4944C11.3818 30.3381 13.1969 29.084 15.4724 29.0606C16.1718 29.0439 16.8708 29.1104 17.5544 29.2589C19.4327 29.6974 20.6439 30.9219 21.2143 32.7301C21.9073 34.9292 21.9119 37.1612 21.1605 39.3463C20.4207 41.4971 18.8974 42.7371 16.593 42.9361C16.5052 42.9505 16.4185 42.9716 16.334 42.9993L15.5567 43.0001ZM13.7947 35.893C13.9266 36.8951 13.9991 37.7738 14.17 38.633C14.2949 39.2573 14.6913 39.7295 15.3546 39.8973C16.3738 40.154 17.2751 39.6148 17.5755 38.5284C17.8752 37.4242 17.9647 36.2734 17.8393 35.136C17.7684 34.4694 17.6274 33.812 17.4186 33.1749C17.3343 32.8918 17.1704 32.6389 16.9464 32.4463C16.7224 32.2537 16.4478 32.1295 16.1553 32.0886C15.243 31.9403 14.5337 32.3289 14.259 33.2982C14.0116 34.1722 13.9312 35.0939 13.7947 35.893Z" fill="#181818"/>
<path d="M90.1726 42.6106C88.8616 42.6184 87.5506 42.6286 86.2388 42.6332C85.1464 42.6371 84.0609 42.6332 82.9465 42.6332V29.439C83.031 29.4224 83.1165 29.4115 83.2025 29.4062C85.4234 29.4063 87.6445 29.4062 89.866 29.4062C89.9688 29.4126 90.0712 29.4251 90.1726 29.4437V32.2485H86.5252V34.6677H89.6139V37.4046H86.5213V39.8035H90.1726V42.6106Z" fill="#181818"/>
<path d="M79.4912 43C78.9551 42.9118 78.4105 42.8595 77.8861 42.7284C76.6053 42.4076 75.453 41.7033 74.5834 40.7098C73.7138 39.7163 73.1682 38.4809 73.0198 37.1689C72.8543 35.7829 72.8723 34.4063 73.4388 33.1108C74.5563 30.5636 76.5602 29.2283 79.3188 29.0738C80.1647 29.027 81.0207 29.1518 81.894 29.2033V32.4248L80.7453 32.2274C78.2419 31.7927 76.9215 33.6547 76.7733 35.4606C76.7132 36.2027 76.7623 36.9433 77.0199 37.6457C77.5716 39.162 78.9957 40.0002 80.6376 39.7668C81.0473 39.7083 81.4523 39.6201 81.9174 39.5327V42.6808L80.2006 42.993L79.4912 43Z" fill="#181818"/>
<path d="M6.90233 42.9998C6.4427 42.9264 5.97917 42.8742 5.52501 42.7774C2.75865 42.1851 0.729722 39.9024 0.426944 37.0805C0.317694 36.0659 0.313011 35.0585 0.553361 34.0627C1.25022 31.1752 3.72707 29.1586 6.75016 29.072C7.59763 29.0478 8.449 29.1586 9.30973 29.2086V32.4246C8.92424 32.3591 8.54732 32.2966 8.17119 32.2311C5.66079 31.7901 4.31311 33.6545 4.18123 35.5306C4.12583 36.3149 4.19528 37.0914 4.50274 37.8226C5.09191 39.2273 6.47392 39.9937 8.04399 39.7736C8.45446 39.7159 8.86025 39.6277 9.29803 39.5481V42.6954L7.60387 43.0029L6.90233 42.9998Z" fill="#181818"/>
<path d="M49.3321 23.6453L51.1854 28.2106C50.9248 28.0717 50.7601 27.9866 50.5994 27.8985C48.1803 26.5538 45.7713 25.203 43.3467 23.8732C43.0759 23.7306 42.7749 23.6552 42.4688 23.6531C36.5579 23.6406 30.6462 23.6375 24.7337 23.6437C22.4909 23.6437 20.7414 22.2242 20.3028 20.0336C20.2533 19.7264 20.2342 19.4151 20.2459 19.1041C20.242 14.2875 20.2755 9.47011 20.2295 4.65427C20.2068 2.24986 21.9026 0.560297 23.6888 0.225506C24.0321 0.155653 24.3811 0.117513 24.7313 0.111568C37.5292 0.106365 50.327 0.106365 63.1248 0.111568C65.3411 0.111568 67.0812 1.48663 67.5557 3.63663C67.6426 4.082 67.6816 4.5354 67.672 4.98906C67.6803 9.58561 67.6816 14.1816 67.6759 18.7772C67.6759 19.9142 67.4855 20.9958 66.7527 21.9237C65.8662 23.0452 64.7027 23.6359 63.2864 23.6406C58.8298 23.6601 54.3732 23.6476 49.9165 23.6476L49.3321 23.6453ZM32.4896 12.7291C32.5263 12.7728 32.5482 12.7884 32.556 12.8071C32.5778 12.868 32.5942 12.9304 32.6129 12.9921C33.3387 15.3333 34.2384 17.5964 35.7344 19.5638C36.1784 20.1483 36.6669 20.7305 37.2404 21.18C38.2643 21.9815 39.4254 21.4828 39.6595 20.2061C39.6852 19.999 39.6928 19.7901 39.6822 19.5817C39.6822 18.6601 39.6197 17.7322 39.7025 16.8176C39.8585 15.0921 40.0521 13.3659 40.3189 11.6545C40.6748 9.37569 41.1063 7.11019 42.1559 5.01638C42.461 4.40766 42.3846 3.79193 41.9405 3.26984C41.4723 2.7142 40.859 2.48944 40.1262 2.66035C39.58 2.786 39.2608 3.15356 39.0212 3.62258C37.8796 5.85687 37.3786 8.27688 36.9728 10.7242C36.8027 11.7497 36.6817 12.7837 36.5295 13.8833C36.4648 13.7233 36.4179 13.6312 36.3906 13.5344C35.9513 12.0049 35.5042 10.4768 35.082 8.94257C34.8939 8.25816 34.8167 7.53785 34.5849 6.87061C34.1947 5.75385 32.9298 5.5213 32.1159 6.38676C31.9154 6.60772 31.7448 6.8541 31.6086 7.11955C30.7916 8.65382 29.9878 10.1959 29.1786 11.7348C28.6128 12.8102 28.0463 13.8856 27.4618 14.9914C27.4287 14.92 27.4011 14.8462 27.3791 14.7706C26.7735 11.5678 26.1701 8.36481 25.5687 5.16153C25.4586 4.57233 25.4079 3.94333 24.8024 3.62649C24.1273 3.27453 23.4305 3.32681 22.8124 3.75759C22.2334 4.16028 22.0727 4.77836 22.1835 5.45028C22.5019 7.37787 22.7812 9.31326 23.1823 11.2252C23.7231 13.8076 24.3373 16.3759 24.9772 18.9348C25.1535 19.6372 25.4758 20.3278 25.8402 20.9638C26.2242 21.6334 26.8547 21.7372 27.4665 21.269C27.8816 20.9498 28.2976 20.5666 28.559 20.1265C29.3393 18.8131 30.0612 17.463 30.7775 16.1113C31.3691 15.0016 31.9153 13.8692 32.4896 12.7291ZM65.3356 10.9638C65.3114 10.0094 65.1943 9.05104 64.8604 8.12549C64.0917 5.99188 62.3741 4.72451 60.2352 4.71124C58.4365 4.70032 57.0779 5.5291 56.0431 6.93382C54.3443 9.2399 53.7528 11.8402 54.1437 14.6535C54.3326 16.0145 54.8546 17.2593 55.8972 18.2114C57.9011 20.0414 61.1123 19.8073 62.9274 17.6846C64.5708 15.764 65.2794 13.4892 65.3356 10.9638ZM46.9824 19.4421C47.2274 19.4241 47.4748 19.4218 47.7183 19.3866C49.2571 19.1611 50.3801 18.2941 51.2447 17.054C52.2037 15.6925 52.8163 14.1177 53.0294 12.4661C53.2307 10.9271 53.1628 9.42251 52.6119 7.95536C51.2377 4.29685 46.7069 3.68814 44.4291 6.28687C41.9101 9.16108 41.1898 12.4957 42.3713 16.1378C43.0619 18.2683 44.8224 19.4265 46.9824 19.4421Z" fill="#181818"/>
<path d="M26.2577 33.7693C25.9619 36.7099 25.6662 39.6504 25.3681 42.6105H21.9852C22.5463 38.2137 23.1058 33.8333 23.6685 29.4303H28.2086C28.7018 31.8043 29.1973 34.1907 29.7053 36.6357C29.9347 35.5057 30.1376 34.4342 30.3709 33.3698C30.6409 32.1414 30.9328 30.9185 31.2293 29.6972C31.2566 29.5848 31.4057 29.4186 31.5001 29.4178C32.9539 29.3999 34.4085 29.4053 35.9146 29.4053C36.5147 33.8091 37.107 38.1996 37.7063 42.6339H35.2216C34.1541 42.6339 34.1564 42.6339 34.0511 41.5749C33.7834 38.9808 33.5134 36.3876 33.1927 33.7763C33.1607 33.8739 33.1225 33.9691 33.0983 34.0682C32.4261 36.8131 31.7574 39.5586 31.092 42.3045C31.0311 42.5566 30.9359 42.6471 30.68 42.6393C30.1087 42.6222 29.536 42.619 28.9632 42.6393C28.6807 42.6495 28.5621 42.5652 28.495 42.2803C27.8082 39.5255 27.1036 36.7754 26.4036 34.0245C26.3818 33.9394 26.3513 33.8559 26.3256 33.7724L26.2577 33.7693Z" fill="#181818"/>
<path d="M42.4454 33.7516C42.1497 36.6913 41.8547 39.6311 41.5558 42.6013H38.1769C38.2885 41.7093 38.3962 40.8267 38.5093 39.9479C38.8896 36.9616 39.2709 33.9753 39.6533 30.9889C39.7072 30.5644 39.7688 30.1407 39.8094 29.7153C39.8305 29.4976 39.9015 29.3985 40.1434 29.4032C41.4552 29.4133 42.7677 29.4203 44.0795 29.3993C44.4166 29.3938 44.4189 29.6069 44.4619 29.8121C44.9119 31.9827 45.3598 34.1535 45.8056 36.3245C45.8114 36.3602 45.8253 36.394 45.8463 36.4234C45.8672 36.4528 45.8947 36.4769 45.9266 36.4939C46.0663 35.779 46.1919 35.0611 46.3495 34.3493C46.6913 32.8057 47.0519 31.2668 47.3944 29.7231C47.4506 29.4687 47.5638 29.3993 47.8151 29.4024C49.1276 29.4138 50.4397 29.4138 51.7512 29.4024C52.011 29.4024 52.1 29.4758 52.1351 29.7434C52.6881 33.8962 53.2492 38.0477 53.8183 42.1978C53.8355 42.3242 53.8371 42.4522 53.8488 42.6091H50.3325C50.0203 39.6654 49.71 36.7186 49.4015 33.7687L49.336 33.7633C48.6227 36.7108 47.9103 39.6592 47.19 42.6348C46.4291 42.6348 45.6901 42.6458 44.9527 42.6208C44.8637 42.6208 44.7342 42.4343 44.7022 42.3133C44.2574 40.6081 43.8259 38.8991 43.3912 37.1916L42.5235 33.7633L42.4454 33.7516Z" fill="#181818"/>
<path d="M66.7683 42.6112H63.2068V29.4513C63.2425 29.4334 63.2806 29.4205 63.3199 29.4131C65.1491 29.4466 66.9798 29.4482 68.8074 29.5325C69.6408 29.5707 70.4227 29.8946 71.129 30.3613C73.4271 31.8791 73.314 35.1646 70.9237 36.5264C70.8457 36.5709 70.7677 36.6123 70.635 36.6825C71.5714 38.6468 72.5078 40.6025 73.4692 42.6135C73.2952 42.6229 73.1727 42.6346 73.051 42.6346C72.0638 42.6346 71.0767 42.6237 70.0856 42.6424C69.7977 42.6479 69.6525 42.5581 69.5284 42.2959C68.6989 40.5377 67.8507 38.7841 67.0079 37.0368C66.9555 36.9104 66.8717 36.7995 66.7644 36.7145L66.7683 42.6112ZM66.7582 35.1599C67.2974 35.046 67.8054 34.9758 68.2892 34.8275C68.7731 34.6792 69.0696 34.3148 69.0985 33.7966C69.1258 33.2503 69.0368 32.7243 68.5452 32.3817C68.013 32.011 67.3965 31.9861 66.7582 31.965V35.1599Z" fill="#181818"/>
<path d="M61.6421 34.6512C61.6421 35.5292 61.6421 36.333 61.6421 37.1368C61.6421 37.2148 61.6336 37.2882 61.6273 37.4021H58.5145V39.8268H62.1166C62.1359 39.9363 62.1495 40.0468 62.1572 40.1577C62.1572 40.8851 62.1572 41.6116 62.1572 42.3389C62.1572 42.5192 62.1572 42.6691 61.9028 42.6683C59.6031 42.6581 57.3041 42.6566 55.0052 42.6519C54.9943 42.6519 54.9834 42.6394 54.9381 42.6129V29.4631H62.0963V32.2429H58.5043V34.6512H61.6421Z" fill="#181818"/>
<path d="M61.9434 10.9381C61.9161 12.5411 61.6313 13.7952 60.8025 14.855C60.5009 15.2258 60.1354 15.5398 59.7233 15.7821C59.0701 16.1723 58.4451 15.9936 58.0533 15.3412C57.4954 14.414 57.3135 13.4065 57.4212 12.3241C57.5397 11.092 58.0197 9.92235 58.8009 8.96217C58.9867 8.72997 59.2057 8.52644 59.4509 8.35814C60.147 7.88054 60.8813 8.04598 61.3183 8.76629C61.7717 9.51704 61.9676 10.3396 61.9434 10.9381Z" fill="#181818"/>
<path d="M49.7652 11.2223C49.7152 12.5942 49.4249 13.8951 48.5205 14.9775C48.2509 15.2922 47.9314 15.5604 47.5747 15.7712C46.9137 16.1677 46.2746 15.996 45.8634 15.3412C45.275 14.4047 45.1299 13.3574 45.2336 12.2797C45.3453 11.0977 45.8026 9.97484 46.5485 9.0512C46.7621 8.77497 47.0171 8.53356 47.3047 8.33557C47.9836 7.88762 48.6914 8.04917 49.1159 8.73904C49.5744 9.48382 49.8004 10.3484 49.7652 11.2223Z" fill="#181818"/>
</g>
<defs>
<clipPath id="clip0_1_9096">
<rect width="91" height="43" fill="white"/>
</clipPath>
</defs>
</svg>
