<svg width="65" height="65" viewBox="0 0 65 65" fill="none" xmlns="http://www.w3.org/2000/svg">
<rect x="0.083374" y="0.166748" width="64" height="64" rx="32" fill="#954CED"/>
<g clip-path="url(#clip0_1_9054)">
<path d="M26.2009 45.2614C38.3016 45.2614 44.9201 35.2361 44.9201 26.5422C44.9201 26.2574 44.9201 25.9739 44.9009 25.6918C46.1885 24.7604 47.2999 23.6073 48.1832 22.2863C46.9826 22.8186 45.7088 23.1675 44.4045 23.3214C45.778 22.4993 46.8059 21.206 47.2969 19.6825C46.0055 20.4489 44.5926 20.9889 43.1193 21.2794C42.1273 20.2246 40.8154 19.5262 39.3865 19.2922C37.9577 19.0581 36.4915 19.3016 35.2149 19.9848C33.9383 20.668 32.9225 21.7529 32.3246 23.0716C31.7267 24.3903 31.5801 25.8693 31.9075 27.2797C29.2918 27.1485 26.733 26.4687 24.3971 25.2845C22.0611 24.1003 20.0003 22.4381 18.3484 20.4059C17.5071 21.8542 17.2494 23.5688 17.6279 25.2004C18.0063 26.8321 18.9923 28.2581 20.3853 29.1883C19.3383 29.1576 18.314 28.8752 17.3992 28.3648V28.4482C17.3997 29.9672 17.9255 31.4392 18.8875 32.6147C19.8495 33.7902 21.1885 34.5967 22.6774 34.8975C21.7088 35.1617 20.6926 35.2003 19.7068 35.0103C20.1273 36.3175 20.9459 37.4605 22.0479 38.2797C23.1499 39.0989 24.4804 39.5532 25.8533 39.5792C24.4892 40.6514 22.9272 41.4441 21.2564 41.912C19.5857 42.38 17.8391 42.5139 16.1166 42.3061C19.1253 44.2368 22.626 45.261 26.2009 45.2563" fill="white"/>
</g>
<defs>
<clipPath id="clip0_1_9054">
<rect width="32.0667" height="32.0667" fill="white" transform="translate(16.1166 16.2001)"/>
</clipPath>
</defs>
</svg>
