<svg width="131" height="34" viewBox="0 0 131 34" fill="none" xmlns="http://www.w3.org/2000/svg">
<g clip-path="url(#clip0_1_9062)">
<path d="M71.1936 33.7067C71.205 31.6809 71.2167 29.657 71.2287 27.6348C71.2287 26.9414 71.2287 26.2468 71.2287 25.447C71.1422 25.5132 71.0605 25.5857 70.9843 25.6641C68.426 29.0793 61.8366 29.0142 59.9136 23.346C58.8703 20.2705 59.0456 17.2156 61.0207 14.521C63.4027 11.2653 68.1497 11.1036 70.8345 14.0945C70.927 14.203 71.0226 14.3007 71.2127 14.509V12.3603H73.3185V33.7056L71.1936 33.7067ZM71.2255 19.971C71.2404 18.7403 71.0417 17.5531 70.4372 16.4744C69.4353 14.6838 67.8639 13.9512 65.9016 14.0771C64.0157 14.1987 62.7238 15.2242 62.0651 17.0148C61.3341 18.9997 61.3214 21.0236 62.0842 22.9977C62.7833 24.8013 64.1602 25.7607 66.0471 25.8594C67.8597 25.9549 69.3407 25.256 70.3214 23.651C71.0088 22.531 71.2372 21.2776 71.2255 19.971Z" fill="#181818"/>
<path d="M42.0645 24.0059L43.911 22.632C43.978 22.7037 44.0411 22.7791 44.1001 22.8577C45.8425 25.5231 49.2636 26.2371 51.8464 25.4623C53.7748 24.886 54.799 23.3819 54.6428 21.4079C54.5663 20.4475 54.1349 19.652 53.2988 19.2754C52.0621 18.7165 50.7563 18.3139 49.474 17.8516C48.1438 17.3719 46.7573 17.0149 45.4877 16.4039C41.6257 14.5438 42.0262 9.29243 45.2008 7.32491C48.7441 5.12733 54.0776 6.13116 56.5308 9.5952L54.7841 10.9897C53.9086 9.86325 52.8494 9.06779 51.533 8.68904C49.8777 8.21263 48.2394 8.22674 46.6829 9.06453C45.3432 9.78512 44.7461 11.2241 45.1541 12.6317C45.3506 13.3088 45.7522 13.858 46.3589 14.151C47.2573 14.5682 48.177 14.9363 49.1138 15.2536C50.5332 15.7506 51.9888 16.1478 53.3902 16.6915C54.0814 16.9715 54.7218 17.368 55.2845 17.8646C57.743 20.0036 57.5263 24.1665 54.8808 26.3294C53.7397 27.2627 52.4116 27.7402 50.9805 27.8899C47.8197 28.2101 45.0032 27.4558 42.7997 24.9707C42.5383 24.6809 42.3226 24.3499 42.0645 24.0059Z" fill="#181818"/>
<path d="M130.811 20.3323H119.431C119.132 22.1609 120.361 24.4877 122.036 25.3244C123.175 25.8771 124.463 26.0208 125.691 25.7322C126.92 25.4436 128.017 24.7397 128.805 23.7345L130.292 25.0748C129.655 25.9292 128.835 26.6236 127.895 27.1052C124.863 28.6875 121.001 28.0168 118.947 25.5349C117.637 23.9516 117.158 22.0676 117.162 20.0426C117.162 17.5162 117.831 15.2242 119.807 13.5584C121.905 11.7905 124.319 11.5388 126.805 12.4959C129.189 13.4151 130.46 15.3262 130.798 17.8656C130.899 18.6578 130.811 19.4739 130.811 20.3323ZM119.463 18.4006H128.651C128.572 15.8699 126.754 14.0858 124.249 14.0413C121.594 13.9957 119.642 15.756 119.463 18.4006Z" fill="#181818"/>
<path d="M94.2648 15.6889L93.1885 14.022C94.3854 13.037 95.814 12.3894 97.3321 12.1435C98.7982 11.8873 100.26 11.8939 101.674 12.443C103.322 13.0822 104.323 14.4778 104.33 16.2543C104.354 19.9245 104.339 23.5948 104.339 27.2661C104.339 27.3529 104.319 27.4408 104.3 27.6003C103.714 27.6003 103.131 27.6199 102.558 27.5819C102.452 27.5754 102.287 27.3431 102.271 27.201C102.247 26.8293 102.242 26.4565 102.258 26.0843C102.176 26.0843 102.131 26.0712 102.116 26.0843C100.16 28.1277 97.8091 28.3437 95.3017 27.52C93.5051 26.9296 92.4969 25.3496 92.4735 23.3614C92.4501 21.408 93.3234 19.9462 95.1508 19.3092C96.4109 18.8751 97.7666 18.7188 99.0692 18.3998C99.8257 18.2292 100.568 17.9988 101.29 17.7107C101.944 17.4361 102.266 16.8598 102.246 16.1056C102.226 15.3514 101.859 14.8392 101.231 14.5136C100.176 13.971 99.0447 13.9612 97.909 14.1099C96.5809 14.29 95.3517 14.7578 94.2648 15.6889ZM102.199 19.3418C100.719 20.1188 99.1287 20.2761 97.5764 20.5974C97.0241 20.7172 96.4812 20.8782 95.9519 21.0792C95.6903 21.1687 95.4517 21.3169 95.2535 21.513C95.0553 21.7091 94.9026 21.948 94.8066 22.2122C94.2754 23.6414 94.9585 25.1423 96.3748 25.6263C96.7286 25.7392 97.0928 25.8148 97.4617 25.852C99.8341 26.1439 101.858 24.7277 102.176 22.4466C102.314 21.459 102.199 20.4346 102.199 19.3418Z" fill="#181818"/>
<path d="M89.2691 27.5697H87.2504V25.497C87.0315 25.7227 86.9168 25.8345 86.8074 25.9538C85.9737 26.8641 84.8953 27.5024 83.7076 27.7883C82.5198 28.0743 81.2759 27.9952 80.132 27.5611C78.3439 26.8676 77.4854 25.4177 77.1678 23.5794C77.0845 23.044 77.0458 22.5023 77.052 21.9602C77.0413 18.9769 77.052 15.9915 77.052 13.0104V12.3755H79.145V12.9387C79.145 15.7777 79.145 18.6166 79.1503 21.4556C79.1463 21.9968 79.1839 22.5374 79.2629 23.0726C79.5997 25.1627 80.897 26.0233 82.8901 25.8497C85.4963 25.6229 87.2206 23.5891 87.2366 20.8088C87.2515 18.2043 87.2366 15.5997 87.2366 12.9952V12.3679H89.2754L89.2691 27.5697Z" fill="#181818"/>
<path d="M108.102 27.6023V12.3788H110.138V14.0728L110.342 14.2193C110.41 14.0793 110.448 13.9089 110.554 13.8058C112.054 12.2952 113.802 11.6593 115.879 12.3093C116.634 12.5459 116.631 12.5926 116.381 13.3283C116.243 13.7331 116.105 14.1379 116.008 14.4266C115.172 14.3517 114.394 14.152 113.649 14.2421C111.883 14.4591 110.633 15.8699 110.306 17.8765C110.212 18.5013 110.167 19.1327 110.171 19.7648C110.154 22.1877 110.154 24.6114 110.171 27.0358C110.171 27.4797 110.058 27.6511 109.606 27.6153C109.119 27.5719 108.625 27.6023 108.102 27.6023Z" fill="#181818"/>
<path fill-rule="evenodd" clip-rule="evenodd" d="M10.2164 0.292847C4.73414 0.292847 0.289917 4.73707 0.289917 10.2193V23.7802C0.289917 29.2624 4.73414 33.7066 10.2164 33.7066H23.1135C28.5957 33.7066 33.0399 29.2624 33.0399 23.7802V10.2193C33.0399 4.73707 28.5957 0.292847 23.1135 0.292847H10.2164ZM9.94655 6.15506C7.81457 6.15506 6.08626 7.88338 6.08626 10.0154V23.9844C6.08626 26.1164 7.81457 27.8447 9.94655 27.8447H23.3831C25.515 27.8447 27.2433 26.1164 27.2433 23.9844V10.0154C27.2433 7.88337 25.515 6.15506 23.3831 6.15506H9.94655Z" fill="#181818"/>
<rect x="12.1725" y="12.3101" width="8.98451" height="9.37931" rx="2.20588" fill="#181818"/>
</g>
<defs>
<clipPath id="clip0_1_9062">
<rect width="131" height="34" fill="white"/>
</clipPath>
</defs>
</svg>
