<svg width="149" height="42" viewBox="0 0 149 42" fill="none" xmlns="http://www.w3.org/2000/svg">
<path d="M131.348 42.0002C130.918 40.7132 130.508 39.4188 130.047 38.1429C129.904 37.7425 130.126 37.6916 130.388 37.5924C132.387 36.8386 134.039 35.6582 135.229 33.8728C135.408 33.6244 135.533 33.3417 135.595 33.0428C135.657 32.7439 135.656 32.4354 135.592 32.137C134.638 27.1465 133.708 22.1498 132.764 17.1593C132.596 16.2604 132.586 16.2629 133.484 16.2629C134.795 16.2629 136.108 16.2765 137.414 16.2542C137.818 16.2542 137.936 16.3782 137.974 16.7749C138.336 20.4809 138.723 24.1844 139.098 27.8879C139.111 28.0045 139.083 28.1359 139.223 28.2177C139.378 28.1223 139.387 27.9474 139.436 27.8036C140.709 24.1075 142.153 20.4747 143.558 16.8282C143.726 16.393 143.943 16.2405 144.415 16.2505C145.927 16.2814 147.441 16.2629 149 16.2629C148.976 16.3833 148.943 16.5018 148.901 16.6175C146.386 21.8051 144.108 27.1043 141.406 32.2002C140.156 34.556 138.707 36.7877 136.835 38.7195C135.399 40.1999 133.711 41.2922 131.713 41.8861C131.664 41.901 131.629 41.9617 131.588 42.0002H131.348Z" fill="#181818"/>
<path d="M25.6404 41.2624C25.6404 29.1116 25.6404 16.9609 25.6404 4.81008C25.9302 4.77784 26.0926 4.9787 26.265 5.1498C26.9346 5.79578 27.618 6.42935 28.2638 7.09641C28.3977 7.25098 28.5659 7.37263 28.7551 7.4518C28.9443 7.53097 29.1495 7.5655 29.3544 7.55268C30.0178 7.52416 30.6849 7.58864 31.3533 7.56508C31.9629 7.54276 32.2452 7.77462 32.3314 8.38836C32.7 11.0119 33.1047 13.6318 33.4957 16.2516C34.1004 20.2953 34.7046 24.3381 35.3084 28.3801C35.7831 31.5492 36.2516 34.7183 36.7426 37.885C36.8213 38.3946 36.7288 38.6401 36.1617 38.774C32.8524 39.5539 29.5543 40.3796 26.2513 41.1843C26.0493 41.2216 25.8453 41.2476 25.6404 41.2624Z" fill="#181818"/>
<path d="M66.3387 33.9656C66.8609 31.223 67.3781 28.5386 67.8791 25.8506C68.1289 24.4979 68.4787 23.1576 68.455 21.759C68.4275 20.0914 67.2145 19.4032 65.7441 20.2451C64.9246 20.715 64.3924 21.4466 63.9414 22.2463C63.1456 23.6573 62.8895 25.222 62.5897 26.7793C62.1625 29.0011 61.7315 31.2217 61.3217 33.4461C61.2493 33.8404 61.1043 33.9829 60.6808 33.9743C59.3504 33.9433 58.0187 33.947 56.6832 33.9743C56.2497 33.9829 56.156 33.8503 56.2335 33.4473C57.5477 26.6842 58.8548 19.9195 60.1549 13.153C60.4272 11.7396 60.7071 10.3274 60.9582 8.91018C61.0256 8.53202 61.1743 8.40308 61.5678 8.41423C62.9004 8.43738 64.2329 8.43738 65.5655 8.41423C66.0252 8.40679 66.1164 8.52706 66.0252 8.98085C65.408 12.0458 64.8234 15.1158 64.2287 18.1857C64.2231 18.25 64.2231 18.3148 64.2287 18.3791C64.4661 18.394 64.5286 18.1882 64.6422 18.0716C65.8915 16.7908 67.3631 16.0122 69.1771 15.8671C71.7231 15.6625 73.5282 17.1777 73.7031 19.7045C73.8168 21.3449 73.5145 22.9419 73.2034 24.5401C72.6213 27.5269 72.0529 30.5175 71.4782 33.5068C71.4382 33.7164 71.4782 33.973 71.1222 33.9705C69.5394 33.9581 67.9615 33.9656 66.3387 33.9656Z" fill="#181818"/>
<path d="M119.752 33.9657C120.182 31.6918 120.599 29.4737 121.023 27.2555C121.452 25.0151 121.877 22.7721 122.331 20.5366C122.424 20.0717 122.284 19.9589 121.846 19.9886C121.407 20.0184 120.93 19.9824 120.472 19.9998C120.151 20.0109 120.079 19.8758 120.139 19.5919C120.345 18.5851 120.549 17.5771 120.732 16.5666C120.784 16.2789 120.921 16.1946 121.194 16.1946C121.693 16.207 122.193 16.1785 122.693 16.2033C123.061 16.2219 123.193 16.0855 123.248 15.7259C123.41 14.6266 123.721 13.5537 124.169 12.5357C125.51 9.52407 128.227 7.88247 131.591 8.07218C132.236 8.09098 132.875 8.18418 133.498 8.34991C133.795 8.4367 133.917 8.55449 133.835 8.86817C133.559 9.92207 133.287 10.976 133.032 12.0361C132.961 12.3287 132.826 12.3646 132.547 12.3163C130.21 11.9084 128.932 12.7552 128.384 15.0564C128.113 16.1971 128.113 16.1971 129.271 16.1971C129.915 16.1971 130.559 16.2107 131.204 16.1971C131.544 16.1872 131.649 16.3062 131.579 16.6323C131.385 17.6242 131.193 18.6099 131.023 19.608C130.972 19.9105 130.846 20.0122 130.536 20.006C129.684 19.9861 128.83 20.0196 127.978 19.9899C127.592 19.9762 127.434 20.1052 127.364 20.4771C126.576 24.6588 125.781 28.8393 124.978 33.0185C124.929 33.218 124.891 33.42 124.864 33.6235C124.842 33.8814 124.724 33.9744 124.464 33.9732C122.913 33.9657 121.356 33.9657 119.752 33.9657Z" fill="#181818"/>
<path d="M47.7623 34.2782C45.806 34.2869 44.2931 33.9868 42.8515 33.3359C42.4767 33.1648 42.3268 32.985 42.5017 32.551C42.8402 31.7116 43.1263 30.8536 43.4061 29.9919C43.5311 29.61 43.656 29.5233 44.0483 29.7105C45.062 30.1925 46.156 30.4866 47.2763 30.5784C47.7517 30.627 48.232 30.5811 48.6893 30.4432C49.9385 30.0415 50.3133 28.7211 49.4751 27.7155C49.1253 27.2977 48.6705 27.0075 48.2145 26.7236C47.7586 26.4397 47.2614 26.1372 46.8041 25.8173C42.9939 23.1615 44.438 18.8058 47.2039 17.1381C49.2277 15.9169 51.4289 15.7644 53.7001 15.995C54.4042 16.0589 55.0957 16.2217 55.7538 16.4785C56.0911 16.6137 56.2411 16.7575 56.0899 17.1617C55.7563 18.0457 55.474 18.9496 55.1967 19.8535C55.0955 20.1845 54.9568 20.2539 54.632 20.1262C53.628 19.7193 52.5432 19.547 51.4614 19.6229C51.0658 19.6463 50.6811 19.76 50.337 19.9551C49.4626 20.4598 49.2977 21.4554 49.9535 22.2192C50.2958 22.6172 50.7381 22.8874 51.1903 23.1441C51.8585 23.5199 52.4997 23.9412 53.1092 24.4051C56.4284 26.948 55.1704 31.1772 52.7581 32.8077C51.3839 33.7376 49.63 34.2472 47.7623 34.2782Z" fill="#181818"/>
<path d="M112.804 33.966C112.159 33.966 111.511 33.9201 110.871 33.9784C110.232 34.0367 110.334 33.7019 110.409 33.3163C110.865 30.9754 111.318 28.6337 111.766 26.2912C112.379 23.122 113 19.9541 113.597 16.7813C113.666 16.4168 113.766 16.2482 114.177 16.2544C115.548 16.2767 116.921 16.2767 118.293 16.2544C118.702 16.2482 118.783 16.3784 118.708 16.7602C117.619 22.3091 116.54 27.8596 115.47 33.4118C115.392 33.816 115.267 34.0119 114.799 33.9771C114.138 33.9288 113.47 33.966 112.804 33.966Z" fill="#181818"/>
<path d="M119.88 11.1409C119.888 12.8581 118.65 14.0794 116.899 14.0794C115.442 14.0794 114.489 13.1049 114.484 11.6096C114.484 9.96425 115.733 8.68966 117.357 8.67726C118.828 8.6723 119.872 9.68528 119.88 11.1409Z" fill="#181818"/>
<path fill-rule="evenodd" clip-rule="evenodd" d="M99.8289 18.4947C99.737 18.5981 99.6378 18.7096 99.5266 18.8319C99.5602 18.5258 99.5903 18.239 99.6192 17.9648C99.6687 17.4938 99.7144 17.0601 99.7665 16.6299C99.8102 16.2951 99.7265 16.1488 99.3517 16.155C98.1657 16.1765 96.9806 16.1765 95.7963 16.155C95.4115 16.1488 95.3103 16.2989 95.2691 16.651C94.896 19.8699 94.2759 23.0484 93.656 26.2262C93.5474 26.783 93.4388 27.3397 93.3315 27.8966C93.2543 28.2992 93.177 28.7018 93.0998 29.1043C92.3752 32.8816 91.6505 36.6594 90.9054 40.4343C90.7968 40.9848 90.9592 41.084 91.4764 41.0691C92.6881 41.0344 93.8974 41.012 95.0992 41.0765C95.7563 41.1112 95.9287 40.8459 96.0274 40.2793C96.2511 38.9841 96.4953 37.6924 96.7394 36.401C96.8812 35.6514 97.0229 34.9018 97.1605 34.1518C97.1652 34.1266 97.1693 34.1017 97.1734 34.0774C97.2128 33.8402 97.2434 33.6564 97.649 33.8059C100.534 34.8709 103.258 34.3961 105.546 32.4718C109.486 29.1564 110.732 24.7957 109.836 19.8486C109.483 17.9057 108.304 16.4526 106.235 16.005C103.889 15.4991 101.949 16.3199 100.312 17.9702C100.154 18.1289 100.005 18.2971 99.8289 18.4947ZM102.566 29.2629C104.134 27.4278 104.716 25.2271 104.883 22.8874C104.9 22.3093 104.804 21.7334 104.601 21.1913C104.286 20.3705 103.643 19.9725 102.767 19.9985C101.892 20.0246 101.241 20.4858 100.687 21.097C99.8052 22.0691 99.2893 23.2358 99.0232 24.4955C98.8647 25.2469 98.7291 26.0031 98.5936 26.759C98.4429 27.5998 98.2922 28.4403 98.11 29.274C97.9963 29.8072 98.1924 30.013 98.6097 30.2138C100.023 30.8908 101.442 30.5821 102.566 29.2629Z" fill="#181818"/>
<path fill-rule="evenodd" clip-rule="evenodd" d="M79.6133 17.6599C76.4489 20.0503 75.2134 23.3707 75.0622 26.587C75.0485 30.9079 77.0048 33.5204 80.3641 34.1639C82.7739 34.6251 85.0376 34.1564 87.0951 32.8285C91.4138 30.0363 92.6668 24.1494 91.7299 20.6777C91.0203 18.043 89.2988 16.3989 86.5579 15.9662C84.0257 15.5657 81.6646 16.1137 79.6133 17.6599ZM85.5425 28.1753C86.3305 26.5964 86.7705 24.8689 86.8329 23.108C86.8404 22.4483 86.8267 21.8941 86.6555 21.3535C86.1996 19.8731 84.7079 19.2631 83.3188 19.9897C82.8258 20.2595 82.4025 20.6388 82.082 21.0981C81.1688 22.3392 80.6953 23.7589 80.4192 25.2467C80.2044 26.4073 80.0744 27.5752 80.428 28.7308C80.9776 30.5373 82.9003 31.0618 84.3269 29.8045C84.8334 29.3436 85.246 28.7905 85.5425 28.1753Z" fill="#181818"/>
<path fill-rule="evenodd" clip-rule="evenodd" d="M23.6291 40.9335L23.625 40.9329L23.6229 40.9325L23.6224 40.9324C22.1835 40.698 20.7448 40.4636 19.3079 40.2195C17.0573 39.8371 14.8078 39.4525 12.5584 39.068C8.62318 38.3953 4.68828 37.7226 0.74882 37.0615C0.151673 36.9611 -0.0731945 36.8272 0.0205002 36.1366C0.76229 30.6873 1.47282 25.2339 2.18335 19.7805C2.33678 18.6029 2.49021 17.4253 2.64395 16.2477C2.69508 15.8605 2.74741 15.4735 2.79975 15.0864L2.79976 15.0863L2.79977 15.0862L2.79978 15.0861L2.79979 15.0861C2.92392 14.168 3.04807 13.2498 3.15615 12.3297C3.22611 11.7395 3.53093 11.4085 4.09559 11.2411C4.64173 11.0785 5.18786 10.91 5.73473 10.7412L5.73483 10.7412L5.73493 10.7411L5.73504 10.7411L5.73505 10.7411L5.73506 10.7411L5.73507 10.7411C6.43903 10.5239 7.14419 10.3062 7.85212 10.1004C8.27812 9.97643 8.47676 9.76193 8.58044 9.31185C9.31251 6.24564 10.618 3.48444 13.0778 1.37665C14.0272 0.563293 15.1291 0.0512245 16.4121 0.00534907C16.86 -0.0201466 17.3085 0.0456887 17.7298 0.198796C18.1511 0.351903 18.5364 0.589036 18.8619 0.895579C19.048 1.06916 19.2267 1.21175 19.5077 1.21175C21.1668 1.21175 22.2636 2.10322 23.0581 3.44352C23.298 3.82908 23.4929 4.24047 23.639 4.66976C23.7827 5.13223 24.0201 5.18183 24.4236 5.03181L24.4449 5.02387C24.8405 4.87673 25.2132 4.73807 25.6366 4.81359C25.7309 4.89461 25.806 4.99531 25.8565 5.10848C25.9071 5.22164 25.9318 5.34449 25.9289 5.46824C25.9427 5.71622 25.9464 5.96419 25.9464 6.21217C25.9464 17.433 25.9444 28.6539 25.9402 39.8748C25.9407 39.962 25.9457 40.0513 25.9508 40.1413C25.9731 40.535 25.9962 40.9433 25.6404 41.2622C24.97 41.152 24.2995 41.0427 23.6291 40.9335ZM17.5588 1.67556C15.7224 2.82616 14.693 4.55703 13.9634 6.49991C13.946 6.54528 13.9282 6.59082 13.9103 6.63652C13.7997 6.91925 13.6867 7.20803 13.6599 7.50049C13.5899 8.24442 13.1602 8.53703 12.4731 8.68829C11.9298 8.8079 11.399 8.98488 10.8689 9.1616L10.8687 9.16167L10.8686 9.16171C10.7284 9.20845 10.5883 9.25516 10.448 9.30079C10.0832 9.42478 9.91582 9.34915 10.037 8.94619C10.8278 6.31765 12.0146 3.92593 14.2445 2.17647C14.9641 1.61232 15.7848 1.28376 16.7268 1.35319L16.7404 1.35419C17.0222 1.37489 17.3117 1.39614 17.5588 1.67556ZM18.2684 6.90008C19.2091 6.61119 19.2091 6.60995 19.1717 5.62673C19.1551 4.86496 19.0297 4.10938 18.7994 3.38255C18.5833 2.69442 18.4921 2.65847 17.9186 3.06639C16.3746 4.16863 15.615 5.77923 15.0453 7.5039C14.9117 7.89942 15.1615 7.84982 15.4114 7.77543C16.3646 7.48406 17.3277 7.18897 18.2684 6.90008ZM20.0687 2.89661C20.0305 2.5577 20.2343 2.64015 20.4078 2.71029L20.4148 2.71311C21.0794 2.98092 21.5253 3.48307 21.8851 4.07697C22.7359 5.47803 22.5822 5.80164 20.9457 6.08433C20.7333 6.12028 20.5584 6.1364 20.5472 5.86859C20.5195 4.86141 20.3586 3.8622 20.0687 2.89661ZM7.2785 32.4331C8.76484 33.5549 10.5857 34.1527 12.4529 34.1317C13.6997 34.1391 14.5542 33.9718 15.4262 33.5502C17.8473 32.3748 19.149 29.476 18.5968 26.5647C18.2495 24.7334 17.1177 23.4799 15.6386 22.457C15.3615 22.2649 15.0763 22.0842 14.7911 21.9035C14.2351 21.5512 13.6792 21.1989 13.1838 20.7621C12.1881 19.888 12.3605 18.5093 13.5473 17.9104C13.8262 17.7723 14.1237 17.6746 14.4305 17.6203C15.5228 17.4346 16.645 17.5333 17.6874 17.9067C18.0796 18.0406 18.2395 17.9625 18.3407 17.5608C18.6505 16.3225 18.9837 15.0901 19.3401 13.8635C19.4763 13.3911 19.3326 13.1877 18.8667 13.0774C17.6524 12.791 16.4368 12.822 15.2101 12.9708C11.7446 13.3923 9.1424 15.5993 8.38535 18.7833C7.72074 21.578 8.49028 23.6287 10.8314 25.3137C11.3186 25.6646 11.8058 26.0192 12.2755 26.3912C12.7086 26.7182 13.0325 27.1671 13.205 27.6794C13.5898 28.8784 12.8502 29.9013 11.581 29.9112C11.248 29.912 10.9163 29.8703 10.594 29.7872C9.74737 29.5626 8.94492 29.1979 8.22044 28.7085C7.79944 28.4332 7.59706 28.4122 7.49087 28.9788C7.33472 29.807 7.13858 30.6315 6.90372 31.4412C6.77879 31.9061 6.91996 32.1665 7.2785 32.4331Z" fill="#444444"/>
</svg>
